  0
SECTION
  2
HEADER
  9
$ACADVER
  1
AC1009
  9
$INSBASE
 10
0
 20
0
 30
0
  9
$EXTMIN
 10
0
 20
0
  9
$EXTMAX
 10
29700
 20
21000
  9
$LIMMIN
 10
0
 20
0
  9
$LIMMAX
 10
29700
 20
21000
  9
$LTSCALE
 40
100
  0
ENDSEC
  0
SECTION
  2
TABLES
  0
TABLE
  2
LTYPE
 70
     9
  0
LTYPE
  2
CONTINUOUS
 70
    64
  3
実線
 72
    65
 73
     0
 40
0.0
  0
LTYPE
  2
DASHED1
 70
    64
  3
--  --  --  --  --  --  --  --  
 72
    65
 73
     2
 40
2.5
 49
1.25
 49
-1.25
  0
LTYPE
  2
DASHED2
 70
    64
  3
----    ----    ----    ----    
 72
    65
 73
     2
 40
5.0
 49
2.5
 49
-2.5
  0
LTYPE
  2
DASHED3
 70
    64
  3
------  ------  ------  ------  
 72
    65
 73
     2
 40
5.0
 49
3.75
 49
-1.25
  0
LTYPE
  2
CENTER1
 70
    64
  3
----- - ----- - ----- - ----- - 
 72
    65
 73
     4
 40
10.0
 49
6.25
 49
-1.25
 49
1.25
 49
-1.25
  0
LTYPE
  2
CENTER2
 70
    64
  3
----------  --  ----------  --  
 72
    65
 73
     4
 40
20.0
 49
12.5
 49
-2.5
 49
2.5
 49
-2.5
  0
LTYPE
  2
PHANTOM1
 70
    64
  3
--- - - --- - - --- - - --- - - 
 72
    65
 73
     6
 40
10.0
 49
3.25
 49
-1.25
 49
1.25
 49
-1.25
 49
1.25
 49
-1.25
  0
LTYPE
  2
PHANTOM2
 70
    64
  3
--------  -  -  --------  -  -  
 72
    65
 73
     6
 40
20.0
 49
10.0
 49
-2.5
 49
1.25
 49
-2.5
 49
1.25
 49
-2.5
  0
LTYPE
  2
DOT
 70
    64
  3
-   -   -   -   -   -   -   -   
 72
    65
 73
     2
 40
2.5
 49
0.625
 49
-1.875
  0
LTYPE
  2
DUMMY
 70
    64
  3
ダミー
 72
    65
 73
     0
 40
0.0
  0
LTYPE
  2
RAND1
 70
    64
  3
ランダム線1
 72
    65
 73
     4
 40
10.0
 49
1.0
 49
-2.0
 49
3.0
 49
-4.0
  0
LTYPE
  2
RAND2
 70
    64
  3
ランダム線2
 72
    65
 73
     4
 40
14.0
 49
2.0
 49
-3.0
 49
4.0
 49
-5.0
  0
LTYPE
  2
RAND3
 70
    64
  3
ランダム線3
 72
    65
 73
     4
 40
18.0
 49
3.0
 49
-4.0
 49
5.0
 49
-6.0
  0
LTYPE
  2
RAND4
 70
    64
  3
ランダム線4
 72
    65
 73
     4
 40
22.0
 49
4.0
 49
-5.0
 49
6.0
 49
-7.0
  0
LTYPE
  2
RAND5
 70
    64
  3
ランダム線5
 72
    65
 73
     4
 40
26.0
 49
5.0
 49
-6.0
 49
7.0
 49
-8.0
  0
LTYPE
  2
LONG1
 70
    64
  3
----------  --  ----------  --  
 72
    65
 73
     4
 40
40.0
 49
32.5
 49
-2.5
 49
2.5
 49
-2.5
  0
LTYPE
  2
LONG2
 70
    64
  3
--------  -  -  --------  -  -  
 72
    65
 73
     6
 40
40.0
 49
30.0
 49
-2.5
 49
1.25
 49
-2.5
 49
1.25
 49
-2.5
  0
LTYPE
  2
LONG3
 70
    64
  3
+++++++++++++++..+++++++++++++++
 72
    65
 73
     2
 40
40.0
 49
37.5
 49
-2.5
  0
LTYPE
  2
LONG4
 70
    64
  3
+++++++++++++++..+++++++++++++++
 72
    65
 73
     2
 40
80.0
 49
75.0
 49
-5.0
  0
LTYPE
  2
LONG5
 70
    64
  3
----------  --  ----------  --  
 72
    65
 73
     4
 40
60.0
 49
37.5
 49
-7.5
 49
7.5
 49
-7.5
  0
LTYPE
  2
dashed
 70
   64
  3
-------   -------------   ------
 72
   65
 73
    2
 40
7.5
 49
6
 49
-1.5
  0
LTYPE
  2
dashed_spaced
 70
   64
  3
----        --------        ----
 72
   65
 73
    2
 40
12
 49
6
 49
-6
  0
LTYPE
  2
long_dashed_dotted
 70
   64
  3
------------- --- --------------
 72
   65
 73
    4
 40
15.25
 49
12
 49
-1.5
 49
0.25
 49
-1.5
  0
LTYPE
  2
long_dashed_double-dotted
 70
   64
  3
----------- --- --- ------------
 72
   65
 73
    6
 40
17
 49
12
 49
-1.5
 49
0.25
 49
-1.5
 49
0.25
 49
-1.5
  0
LTYPE
  2
long_dashed_triplicate-dotted
 70
   64
  3
--------- --- --- --- ----------
 72
   65
 73
    8
 40
18.75
 49
12
 49
-1.5
 49
0.25
 49
-1.5
 49
0.25
 49
-1.5
 49
0.25
 49
-1.5
  0
LTYPE
  2
dotted
 70
   64
  3
   -       -       -       -    
 72
   65
 73
    2
 40
1.75
 49
0.25
 49
-1.5
  0
LTYPE
  2
chain
 70
   64
  3
-------------- -- --------------
 72
   65
 73
    4
 40
18.5
 49
12
 49
-1.5
 49
3.5
 49
-1.5
  0
LTYPE
  2
chain_double_dash
 70
   64
  3
------------ -- -- -------------
 72
   65
 73
    6
 40
23.5
 49
12
 49
-1.5
 49
3.5
 49
-1.5
 49
3.5
 49
-1.5
  0
LTYPE
  2
dashed_dotted
 70
   64
  3
-----------     -     ----------
 72
   65
 73
    4
 40
9.25
 49
6
 49
-1.5
 49
0.25
 49
-1.5
  0
LTYPE
  2
double-dashed_dotted
 70
   64
  3
------   -----------   -   -----
 72
   65
 73
    6
 40
16.75
 49
6
 49
-1.5
 49
6
 49
-1.5
 49
0.25
 49
-1.5
  0
LTYPE
  2
dashed_double-dotted
 70
   64
  3
---------    -    -    ---------
 72
   65
 73
    6
 40
11
 49
6
 49
-1.5
 49
0.25
 49
-1.5
 49
0.25
 49
-1.5
  0
LTYPE
  2
double-dashed_double-dotted
 70
   64
  3
-----   ---------   -   -   ----
 72
   65
 73
    8
 40
18.5
 49
6
 49
-1.5
 49
6
 49
-1.5
 49
0.25
 49
-1.5
 49
0.25
 49
-1.5
  0
LTYPE
  2
dashed_triplicate-dotted
 70
   64
  3
-------    -    -    -    ------
 72
   65
 73
    8
 40
12.75
 49
6
 49
-1.5
 49
0.25
 49
-1.5
 49
0.25
 49
-1.5
 49
0.25
 49
-1.5
  0
LTYPE
  2
double-dashed_triplicate-dotted
 70
   64
  3
-----  ---------  -  -  -  -----
 72
   65
 73
   10
 40
20.25
 49
6
 49
-1.5
 49
6
 49
-1.5
 49
0.25
 49
-1.5
 49
0.25
 49
-1.5
 49
0.25
 49
-1.5
  0
LTYPE
  2
undefined
 70
   64
  3
--------------------------------
 72
   65
 73
    0
 40
0
  0
LTYPE
  2
_
 70
   64
  3
                                
 72
   65
 73
    0
 40
0
  0
LTYPE
  2
__18
 70
   64
  3
                                
 72
   65
 73
    0
 40
0
  0
LTYPE
  2
__19
 70
   64
  3
                                
 72
   65
 73
    0
 40
0
  0
LTYPE
  2
__20
 70
   64
  3
                                
 72
   65
 73
    0
 40
0
  0
LTYPE
  2
__21
 70
   64
  3
                                
 72
   65
 73
    0
 40
0
  0
LTYPE
  2
__22
 70
   64
  3
                                
 72
   65
 73
    0
 40
0
  0
LTYPE
  2
__23
 70
   64
  3
                                
 72
   65
 73
    0
 40
0
  0
LTYPE
  2
__24
 70
   64
  3
                                
 72
   65
 73
    0
 40
0
  0
LTYPE
  2
__25
 70
   64
  3
                                
 72
   65
 73
    0
 40
0
  0
LTYPE
  2
__26
 70
   64
  3
                                
 72
   65
 73
    0
 40
0
  0
LTYPE
  2
__27
 70
   64
  3
                                
 72
   65
 73
    0
 40
0
  0
LTYPE
  2
__28
 70
   64
  3
                                
 72
   65
 73
    0
 40
0
  0
LTYPE
  2
__29
 70
   64
  3
                                
 72
   65
 73
    0
 40
0
  0
LTYPE
  2
__30
 70
   64
  3
                                
 72
   65
 73
    0
 40
0
  0
LTYPE
  2
__31
 70
   64
  3
                                
 72
   65
 73
    0
 40
0
  0
LTYPE
  2
__32
 70
   64
  3
                                
 72
   65
 73
    0
 40
0
  0
ENDTAB
  0
TABLE
  2
STYLE
  5
3
100
AcDbSymbolTable
 70
     1
  0
STYLE
  5
10
100
AcDbSymbolTableRecord
100
AcDbTextStyleTableRecord
  2
STANDARD
 70
     0
 40
0.0
 41
1.0
 50
0.0
 71
     0
 42
0.2
  3
txt
  4
bigfont.shx
  0
STYLE
  5
26
100
AcDbSymbolTableRecord
100
AcDbTextStyleTableRecord
  2
TATEGAKI
 70
    68
 40
0.0
 41
1.0
 50
0.0
 71
     0
 42
1.0
  3
txt
  4
bigfont.shx
  0
ENDTAB
  0
TABLE
  2
LAYER
 70
    2
  0
LAYER
  2
_0-0_
 70
   64
 62
    7
  6
CONTINUOUS
  0
LAYER
  2
ADD_LINE
 70
   64
 62
    7
  6
CONTINUOUS
  0
ENDTAB
  0
ENDSEC
  0
SECTION
  2
BLOCKS
  0
ENDSEC
  0
SECTION
  2
ENTITIES
  0
LINE
  8
ADD_LINE
  6
DOT
 62
    7
 10
12650.001048673534
 20
8050.0003829425823
 11
12650.001048673534
 21
4550.00001472856
  0
LINE
  8
ADD_LINE
  6
DOT
 62
    7
 10
12650.001048673534
 20
4550.00001472856
 11
16150.000542011039
 21
4550.00001472856
  0
LINE
  8
ADD_LINE
  6
DOT
 62
    7
 10
16150.000542011039
 20
4550.00001472856
 11
16150.000542011039
 21
8050.0003829425823
  0
LINE
  8
ADD_LINE
  6
DOT
 62
    7
 10
16150.000542011039
 20
8050.0003829425823
 11
12650.001048673534
 21
8050.0003829425823
  0
LINE
  8
_0-0_
  6
CONTINUOUS
 62
    4
 10
16150.000542011039
 20
7950.0002474398216
 11
12650.001048673534
 21
7950.0002474398216
  0
LINE
  8
_0-0_
  6
CONTINUOUS
 62
    4
 10
16150.000542011039
 20
7850.0001119370627
 11
12650.001048673534
 21
7850.0001119370627
  0
LINE
  8
_0-0_
  6
CONTINUOUS
 62
    4
 10
16150.000542011039
 20
7750.0008513108169
 11
12650.001048673534
 21
7750.0008513108169
  0
LINE
  8
_0-0_
  6
CONTINUOUS
 62
    4
 10
16150.000542011039
 20
7650.0015906845729
 11
12650.001048673534
 21
7650.0015906845729
  0
LINE
  8
_0-0_
  6
CONTINUOUS
 62
    4
 10
16150.000542011039
 20
7550.001455181814
 11
12650.001048673534
 21
7550.001455181814
  0
LINE
  8
_0-0_
  6
CONTINUOUS
 62
    4
 10
16150.000542011039
 20
7450.0013196790533
 11
12650.001048673534
 21
7450.0013196790533
  0
LINE
  8
_0-0_
  6
CONTINUOUS
 62
    4
 10
16150.000542011039
 20
7350.0020590528093
 11
12650.001048673534
 21
7350.0020590528093
  0
LINE
  8
_0-0_
  6
CONTINUOUS
 62
    4
 10
16150.000542011039
 20
7250.0019235500486
 11
12650.001048673534
 21
7250.0019235500486
  0
LINE
  8
_0-0_
  6
CONTINUOUS
 62
    4
 10
16150.000542011039
 20
7150.0017880472897
 11
12650.001048673534
 21
7150.0017880472897
  0
LINE
  8
_0-0_
  6
CONTINUOUS
 62
    4
 10
16150.000542011039
 20
7050.0025274210448
 11
12650.001048673534
 21
7050.0025274210448
  0
LINE
  8
_0-0_
  6
CONTINUOUS
 62
    4
 10
16150.000542011039
 20
6950.002391918285
 11
12650.001048673534
 21
6950.002391918285
  0
LINE
  8
_0-0_
  6
CONTINUOUS
 62
    4
 10
16150.000542011039
 20
6850.0031312920401
 11
12650.001048673534
 21
6850.0031312920401
  0
LINE
  8
_0-0_
  6
CONTINUOUS
 62
    4
 10
16150.000542011039
 20
6750.0029957892802
 11
12650.001048673534
 21
6750.0029957892802
  0
LINE
  8
_0-0_
  6
CONTINUOUS
 62
    4
 10
16150.000542011039
 20
6650.0037351630372
 11
12650.001048673534
 21
6650.0037351630372
  0
LINE
  8
_0-0_
  6
CONTINUOUS
 62
    4
 10
16150.000542011039
 20
6550.0035996602764
 11
12650.001048673534
 21
6550.0035996602764
  0
LINE
  8
_0-0_
  6
CONTINUOUS
 62
    4
 10
16150.000542011039
 20
6450.0034641575157
 11
12650.001048673534
 21
6450.0034641575157
  0
LINE
  8
_0-0_
  6
CONTINUOUS
 62
    4
 10
16150.000542011039
 20
6350.0042035312717
 11
12650.001048673534
 21
6350.0042035312717
  0
LINE
  8
_0-0_
  6
CONTINUOUS
 62
    4
 10
16150.000542011039
 20
6250.0040680285128
 11
12650.001048673534
 21
6250.0040680285128
  0
LINE
  8
_0-0_
  6
CONTINUOUS
 62
    4
 10
16150.000542011039
 20
6150.004807402267
 11
12650.001048673534
 21
6150.004807402267
  0
LINE
  8
_0-0_
  6
CONTINUOUS
 62
    4
 10
16150.000542011039
 20
6050.0046718995081
 11
12650.001048673534
 21
6050.0046718995081
  0
LINE
  8
_0-0_
  6
CONTINUOUS
 62
    4
 10
16150.000542011039
 20
5950.0045363967474
 11
12650.001048673534
 21
5950.0045363967474
  0
LINE
  8
_0-0_
  6
CONTINUOUS
 62
    4
 10
16150.000542011039
 20
5850.0052757705034
 11
12650.001048673534
 21
5850.0052757705034
  0
LINE
  8
_0-0_
  6
CONTINUOUS
 62
    4
 10
16150.000542011039
 20
5750.0051402677427
 11
12650.001048673534
 21
5750.0051402677427
  0
LINE
  8
_0-0_
  6
CONTINUOUS
 62
    4
 10
16150.000542011039
 20
5650.0058796414987
 11
12650.001048673534
 21
5650.0058796414987
  0
LINE
  8
_0-0_
  6
CONTINUOUS
 62
    4
 10
16150.000542011039
 20
5550.0057441387398
 11
12650.001048673534
 21
5550.0057441387398
  0
LINE
  8
_0-0_
  6
CONTINUOUS
 62
    4
 10
16150.000542011039
 20
5450.0056086359791
 11
12650.001048673534
 21
5450.0056086359791
  0
LINE
  8
_0-0_
  6
CONTINUOUS
 62
    4
 10
16150.000542011039
 20
5350.0063480097351
 11
12650.001048673534
 21
5350.0063480097351
  0
LINE
  8
_0-0_
  6
CONTINUOUS
 62
    4
 10
16150.000542011039
 20
5250.0062125069744
 11
12650.001048673534
 21
5250.0062125069744
  0
LINE
  8
_0-0_
  6
CONTINUOUS
 62
    4
 10
16150.000542011039
 20
5150.0069518807304
 11
12650.001048673534
 21
5150.0069518807304
  0
LINE
  8
_0-0_
  6
CONTINUOUS
 62
    4
 10
16150.000542011039
 20
5050.0068163779706
 11
12650.001048673534
 21
5050.0068163779706
  0
LINE
  8
_0-0_
  6
CONTINUOUS
 62
    4
 10
16150.000542011039
 20
4950.0066808752108
 11
12650.001048673534
 21
4950.0066808752108
  0
LINE
  8
_0-0_
  6
CONTINUOUS
 62
    4
 10
16150.000542011039
 20
4850.0065453724501
 11
12650.001048673534
 21
4850.0065453724501
  0
LINE
  8
_0-0_
  6
CONTINUOUS
 62
    4
 10
16150.000542011039
 20
4750.0064098696912
 11
12650.001048673534
 21
4750.0064098696912
  0
LINE
  8
_0-0_
  6
CONTINUOUS
 62
    4
 10
16150.000542011039
 20
4650.0062743669305
 11
12650.001048673534
 21
4650.0062743669305
  0
LINE
  8
_0-0_
  6
CONTINUOUS
 62
    4
 10
18000.000424182552
 20
5400.0002916255044
 11
18000.000424182552
 21
7200.000106045637
  0
LINE
  8
_0-0_
  6
CONTINUOUS
 62
    4
 10
16249.998927760767
 20
6299.9997613973137
 11
17099.999204657714
 21
6299.9997613973137
  0
LINE
  8
_0-0_
  6
CONTINUOUS
 62
    4
 10
17099.999204657714
 20
5400.0002916255044
 11
18849.998951326463
 21
5400.0002916255044
  0
LINE
  8
_0-0_
  6
CONTINUOUS
 62
    4
 10
17099.999204657714
 20
7200.000106045637
 11
18849.998951326463
 21
7200.000106045637
  0
LINE
  8
_0-0_
  6
CONTINUOUS
 62
    4
 10
17099.999204657714
 20
4550.00001472856
 11
17099.999204657714
 21
8050.0003829425823
  0
LINE
  8
ADD_LINE
  6
DOT
 62
    7
 10
16249.998927760767
 20
4550.00001472856
 11
18849.998951326463
 21
4550.00001472856
  0
LINE
  8
ADD_LINE
  6
DOT
 62
    7
 10
18849.998951326463
 20
4550.00001472856
 11
18849.998951326463
 21
8050.0003829425823
  0
LINE
  8
ADD_LINE
  6
DOT
 62
    7
 10
18849.998951326463
 20
8050.0003829425823
 11
16249.998927760767
 21
8050.0003829425823
  0
LINE
  8
ADD_LINE
  6
DOT
 62
    7
 10
16249.998927760767
 20
8050.0003829425823
 11
16249.998927760767
 21
4550.00001472856
  0
LINE
  8
ADD_LINE
  6
DOT
 62
    7
 10
12550.000038294258
 20
8050.0003829425823
 11
9950.0000147285609
 21
8050.0003829425823
  0
LINE
  8
ADD_LINE
  6
DOT
 62
    7
 10
9950.0000147285609
 20
8050.0003829425823
 11
9950.0000147285609
 21
4550.00001472856
  0
LINE
  8
ADD_LINE
  6
DOT
 62
    7
 10
9950.0000147285609
 20
4550.00001472856
 11
12550.000038294258
 21
4550.00001472856
  0
LINE
  8
ADD_LINE
  6
DOT
 62
    7
 10
12550.000038294258
 20
4550.00001472856
 11
12550.000038294258
 21
8050.0003829425823
  0
LINE
  8
_0-0_
  6
CONTINUOUS
 62
    4
 10
10549.999952868604
 20
4549.9991398520451
 11
9950.0000147285609
 21
4549.9991398520451
  0
LINE
  8
_0-0_
  6
CONTINUOUS
 62
    4
 10
9950.0000147285609
 20
4549.9991398520451
 11
9950.0000147285609
 21
6349.9989542721778
  0
LINE
  8
_0-0_
  6
CONTINUOUS
 62
    4
 10
10549.999952868604
 20
6349.9989542721778
 11
9950.0000147285609
 21
6349.9989542721778
  0
LINE
  8
_0-0_
  6
CONTINUOUS
 62
    4
 10
10549.999952868604
 20
4549.9991398520451
 11
10549.999952868604
 21
6349.9989542721778
  0
LINE
  8
_0-0_
  6
CONTINUOUS
 62
    4
 10
9979.9995304534787
 20
4549.9991398520451
 11
9979.9995304534787
 21
6349.9989542721778
  0
LINE
  8
_0-0_
  6
CONTINUOUS
 62
    4
 10
10039.809588575914
 20
5707.2814204978204
 11
10039.809588575914
 21
6228.9484149240607
  0
LINE
  8
_0-0_
  6
CONTINUOUS
 62
    4
 10
10434.270412489253
 20
5677.2810298963859
 11
10069.809104300833
 21
5677.2810298963859
  0
LINE
  8
_0-0_
  6
CONTINUOUS
 62
    4
 10
10464.269928214171
 20
6228.9484149240607
 11
10464.269928214171
 21
5707.2814204978204
  0
LINE
  8
_0-0_
  6
CONTINUOUS
 62
    4
 10
10434.270412489253
 20
6258.9496804020118
 11
10069.809104300833
 21
6258.9496804020118
  0
LINE
  8
_0-0_
  6
CONTINUOUS
 62
    4
 10
10549.999952868604
 20
5149.999077992089
 11
9979.9995304534787
 21
5149.999077992089
  0
LINE
  8
_0-0_
  6
CONTINUOUS
 62
    4
 10
10464.269928214171
 20
4549.9991398520451
 11
10464.269928214171
 21
5149.999077992089
  0
LINE
  8
_0-0_
  6
CONTINUOUS
 62
    4
 10
10393.525663397946
 20
4549.9991398520451
 11
10393.525663397946
 21
5149.999077992089
  0
LINE
  8
_0-0_
  6
CONTINUOUS
 62
    4
 10
10428.357122119329
 20
5020.0379213311035
 11
10428.357122119329
 21
4954.1133512401202
  0
LINE
  8
_0-0_
  6
CONTINUOUS
 62
    4
 10
10428.357122119329
 20
4744.3512080719102
 11
10428.357122119329
 21
4684.4195421137856
  0
LINE
  8
_0-0_
  6
CONTINUOUS
 62
    4
 10
10127.884282292545
 20
4900.7143882250684
 11
10170.312293800147
 21
4943.1406499796385
  0
LINE
  8
_0-0_
  6
CONTINUOUS
 62
    4
 10
10255.163942432771
 20
4943.1406499796385
 11
10297.591079063857
 21
4900.7143882250684
  0
LINE
  8
_0-0_
  6
CONTINUOUS
 62
    4
 10
10255.163942432771
 20
5027.9931734887778
 11
10297.591079063857
 21
5070.4194352433478
  0
LINE
  8
_0-0_
  6
CONTINUOUS
 62
    4
 10
10127.884282292545
 20
5070.4194352433478
 11
10170.312293800147
 21
5027.9931734887778
  0
LINE
  8
_0-0_
  6
CONTINUOUS
 62
    4
 10
10127.884282292545
 20
4795.3057661019684
 11
10170.312293800147
 21
4752.8803792239141
  0
LINE
  8
_0-0_
  6
CONTINUOUS
 62
    4
 10
10170.312293800147
 20
4668.0269808382591
 11
10127.884282292545
 21
4625.6007190836899
  0
LINE
  8
_0-0_
  6
CONTINUOUS
 62
    4
 10
10255.163942432771
 20
4668.0269808382591
 11
10297.591079063857
 21
4625.6007190836899
  0
LINE
  8
_0-0_
  6
CONTINUOUS
 62
    4
 10
10297.591079063857
 20
4795.3057661019684
 11
10255.163942432771
 21
4752.8795043473992
  0
LINE
  8
ADD_LINE
  6
DOT
 62
    7
 10
18850.000701079498
 20
8150.0013933218579
 11
18850.000701079498
 21
8950.0024773439382
  0
LINE
  8
ADD_LINE
  6
DOT
 62
    7
 10
17150.000147285606
 20
8950.0024773439382
 11
18850.000701079498
 21
8950.0024773439382
  0
LINE
  8
ADD_LINE
  6
DOT
 62
    7
 10
17150.000147285606
 20
8150.0013933218579
 11
17150.000147285606
 21
8950.0024773439382
  0
LINE
  8
ADD_LINE
  6
DOT
 62
    7
 10
17150.000147285606
 20
8150.0013933218579
 11
18850.000701079498
 21
8150.0013933218579
  0
LINE
  8
_0-0_
  6
CONTINUOUS
 62
    4
 10
17150.000147285606
 20
8150.0013933218579
 11
18850.000701079498
 21
8950.0024773439382
  0
LINE
  8
ADD_LINE
  6
DOT
 62
    7
 10
17150.000147285606
 20
10749.998792258009
 11
18350.000023565695
 21
10749.998792258009
  0
LINE
  8
ADD_LINE
  6
DOT
 62
    7
 10
17150.000147285606
 20
9049.9973635876049
 11
17150.000147285606
 21
10749.998792258009
  0
LINE
  8
_0-0_
  6
CONTINUOUS
 62
    4
 10
17150.000147285606
 20
10049.997843738689
 11
17150.000147285606
 21
10749.998792258009
  0
LINE
  8
_0-0_
  6
CONTINUOUS
 62
    4
 10
17150.000147285606
 20
10749.998792258009
 11
18350.000023565695
 21
10749.998792258009
  0
LINE
  8
_0-0_
  6
CONTINUOUS
 62
    4
 10
18350.000023565695
 20
10749.998792258009
 11
18350.000023565695
 21
10049.997843738689
  0
LINE
  8
_0-0_
  6
CONTINUOUS
 62
    4
 10
18350.000023565695
 20
10049.997843738689
 11
17150.000147285606
 21
10049.997843738689
  0
LINE
  8
_0-0_
  6
CONTINUOUS
 62
    4
 10
18270.001314965913
 20
10099.999661243097
 11
17229.998855885391
 21
10099.999661243097
  0
LINE
  8
_0-0_
  6
CONTINUOUS
 62
    4
 10
18300.000830690831
 20
10669.996584152163
 11
18300.000830690831
 21
10130.00092672105
  0
LINE
  8
_0-0_
  6
CONTINUOUS
 62
    4
 10
17229.998855885391
 20
10699.99609987708
 11
18270.001314965913
 21
10699.99609987708
  0
LINE
  8
_0-0_
  6
CONTINUOUS
 62
    4
 10
17199.99934016047
 20
10669.996584152163
 11
17199.99934016047
 21
10130.00092672105
  0
LINE
  8
ADD_LINE
  6
DOT
 62
    7
 10
17150.000147285606
 20
9049.9973635876049
 11
18850.000701079498
 21
9049.9973635876049
  0
LINE
  8
ADD_LINE
  6
DOT
 62
    7
 10
18850.000701079498
 20
10749.998792258009
 11
18850.000701079498
 21
9049.9973635876049
  0
LINE
  8
ADD_LINE
  6
DOT
 62
    7
 10
18850.000701079498
 20
10749.998792258009
 11
18350.000023565695
 21
10749.998792258009
  0
LINE
  8
_0-0_
  6
CONTINUOUS
 62
    4
 10
18350.000023565695
 20
10049.997843738689
 11
18850.000701079498
 21
10049.997843738689
  0
LINE
  8
_0-0_
  6
CONTINUOUS
 62
    4
 10
18350.000023565695
 20
10149.998854117965
 11
18850.000701079498
 21
10149.998854117965
  0
LINE
  8
_0-0_
  6
CONTINUOUS
 62
    4
 10
18350.000023565695
 20
10249.998114744207
 11
18850.000701079498
 21
10249.998114744207
  0
LINE
  8
_0-0_
  6
CONTINUOUS
 62
    4
 10
18350.000023565695
 20
10349.998250246967
 11
18850.000701079498
 21
10349.998250246967
  0
LINE
  8
_0-0_
  6
CONTINUOUS
 62
    4
 10
18350.000023565695
 20
10449.998385749728
 11
18850.000701079498
 21
10449.998385749728
  0
LINE
  8
_0-0_
  6
CONTINUOUS
 62
    4
 10
18350.000023565695
 20
10549.998521252488
 11
18850.000701079498
 21
10549.998521252488
  0
LINE
  8
_0-0_
  6
CONTINUOUS
 62
    4
 10
18350.000023565695
 20
10649.998656755248
 11
18850.000701079498
 21
10649.998656755248
  0
LINE
  8
_0-0_
  6
CONTINUOUS
 62
    4
 10
18450.000159068459
 20
10749.998792258009
 11
18450.000159068459
 21
10049.997843738689
  0
LINE
  8
_0-0_
  6
CONTINUOUS
 62
    4
 10
18550.000294571219
 20
10749.998792258009
 11
18550.000294571219
 21
10049.997843738689
  0
LINE
  8
_0-0_
  6
CONTINUOUS
 62
    4
 10
18650.000430073975
 20
10749.998792258009
 11
18650.000430073975
 21
10049.997843738689
  0
LINE
  8
_0-0_
  6
CONTINUOUS
 62
    4
 10
18750.000565576735
 20
10749.998792258009
 11
18750.000565576735
 21
10049.997843738689
  0
LINE
  8
_0-0_
  6
CONTINUOUS
 62
    4
 10
15604.847487519606
 20
10459.999974077731
 11
15604.847487519606
 21
10739.998953683036
  0
LINE
  8
_0-0_
  6
CONTINUOUS
 62
    4
 10
15604.847487519606
 20
10739.998953683036
 11
16004.848029530645
 21
10739.998953683036
  0
LINE
  8
_0-0_
  6
CONTINUOUS
 62
    4
 10
16004.848029530645
 20
10459.999974077731
 11
16004.848029530645
 21
10739.998953683036
  0
LINE
  8
ADD_LINE
  6
DOT
 62
    7
 10
15349.999457988961
 20
9049.9973635876049
 11
15349.999457988961
 21
10749.997042504976
  0
LINE
  8
ADD_LINE
  6
DOT
 62
    7
 10
17050.000011782849
 20
10749.997042504976
 11
17050.000011782849
 21
9049.9973635876049
  0
LINE
  8
_0-0_
  6
CONTINUOUS
 62
    4
 10
16350.000813016559
 20
10749.997042504976
 11
17050.000011782849
 21
10749.997042504976
  0
LINE
  8
_0-0_
  6
CONTINUOUS
 62
    4
 10
17050.000011782849
 20
10249.999864497238
 11
16350.000813016559
 21
10249.999864497238
  0
LINE
  8
_0-0_
  6
CONTINUOUS
 62
    4
 10
16350.000813016559
 20
10249.999864497238
 11
16350.000813016559
 21
10749.997042504976
  0
LINE
  8
_0-0_
  6
CONTINUOUS
 62
    4
 10
16400.000005891423
 20
10699.999599383145
 11
16999.999069154954
 21
10699.999599383145
  0
LINE
  8
_0-0_
  6
CONTINUOUS
 62
    4
 10
16999.999069154954
 20
10699.999599383145
 11
16999.999069154954
 21
10299.999057372102
  0
LINE
  8
_0-0_
  6
CONTINUOUS
 62
    4
 10
16999.999069154954
 20
10299.999057372102
 11
16400.000005891423
 21
10299.999057372102
  0
LINE
  8
_0-0_
  6
CONTINUOUS
 62
    4
 10
16400.000005891423
 20
10299.999057372102
 11
16400.000005891423
 21
10699.999599383145
  0
LINE
  8
ADD_LINE
  6
DOT
 62
    7
 10
15349.999457988961
 20
9049.9973635876049
 11
17050.000011782849
 21
9049.9973635876049
  0
LINE
  8
ADD_LINE
  6
DOT
 62
    7
 10
15349.999457988961
 20
10749.997042504976
 11
17050.000011782849
 21
10749.997042504976
  0
LINE
  8
_0-0_
  6
CONTINUOUS
 62
    4
 10
17050.000011782849
 20
10749.997042504976
 11
17050.000011782849
 21
10249.999864497238
  0
LINE
  8
_0-0_
  6
CONTINUOUS
 62
    4
 10
15604.847487519606
 20
10459.999974077731
 11
15349.999457988961
 21
10459.999974077731
  0
LINE
  8
_0-0_
  6
CONTINUOUS
 62
    4
 10
16004.848029530645
 20
10459.999974077731
 11
16252.222863863793
 21
10459.999974077731
  0
LINE
  8
_0-0_
  6
CONTINUOUS
 62
    4
 10
16252.222863863793
 20
10459.999974077731
 11
16252.222863863793
 21
10749.997042504976
  0
LINE
  8
_0-0_
  6
CONTINUOUS
 62
    4
 10
13549.99876869231
 20
9950.0003328654748
 11
13549.99876869231
 21
10750.002291764071
  0
LINE
  8
_0-0_
  6
CONTINUOUS
 62
    4
 10
13774.998636135262
 20
9950.0003328654748
 11
13774.998636135262
 21
10750.002291764071
  0
LINE
  8
_0-0_
  6
CONTINUOUS
 62
    4
 10
13999.999378454731
 20
9950.0003328654748
 11
13999.999378454731
 21
10750.002291764071
  0
LINE
  8
_0-0_
  6
CONTINUOUS
 62
    4
 10
14449.998238464119
 20
9950.0003328654748
 11
14449.998238464119
 21
10750.002291764071
  0
LINE
  8
_0-0_
  6
CONTINUOUS
 62
    4
 10
14862.216431017547
 20
10750.002291764071
 11
14769.168064308902
 21
10422.152816006575
  0
LINE
  8
_0-0_
  6
CONTINUOUS
 62
    4
 10
14728.214219730333
 20
10277.850683499486
 11
14635.166727898204
 21
9950.0003328654748
  0
LINE
  8
_0-0_
  6
CONTINUOUS
 62
    4
 10
14769.168064308902
 20
10422.152816006575
 11
14803.617201992904
 21
10360.400532019185
  0
LINE
  8
_0-0_
  6
CONTINUOUS
 62
    4
 10
14803.617201992904
 20
10360.400532019185
 11
14693.765082046331
 21
10339.602967486877
  0
LINE
  8
_0-0_
  6
CONTINUOUS
 62
    7
 10
14693.765082046331
 20
10339.602967486877
 11
14728.214219730333
 21
10277.850683499486
  0
LINE
  8
ADD_LINE
  6
DOT
 62
    7
 10
12649.999298920502
 20
10750.002291764071
 11
14862.216431017547
 21
10750.002291764071
  0
LINE
  8
_0-0_
  6
CONTINUOUS
 62
    4
 10
14674.998980783588
 20
10090.347148644878
 11
14674.998980783588
 21
10750.002291764071
  0
LINE
  8
ADD_LINE
  6
DOT
 62
    7
 10
13450.000382942582
 20
9950.0003328654748
 11
14635.166727898204
 21
9950.0003328654748
  0
LINE
  8
ADD_LINE
  6
DOT
 62
    7
 10
12649.999298920502
 20
9850.0010722392326
 11
12649.999298920502
 21
10750.002291764071
  0
LINE
  8
ADD_LINE
  6
DOT
 62
    7
 10
13450.000382942582
 20
9950.0003328654748
 11
13450.000382942582
 21
9850.0010722392326
  0
LINE
  8
_0-0_
  6
CONTINUOUS
 62
    4
 10
13450.000382942582
 20
9928.8685655041554
 11
12649.999298920502
 21
10390.748248597367
  0
LINE
  8
_0-0_
  6
CONTINUOUS
 62
    4
 10
13471.133025180419
 20
9950.0003328654748
 11
13009.251592334173
 21
10750.002291764071
  0
LINE
  8
_0-0_
  6
CONTINUOUS
 62
    4
 10
14224.999245897683
 20
9950.0003328654748
 11
14224.999245897683
 21
10750.002291764071
  0
LINE
  8
_0-0_
  6
CONTINUOUS
 62
    4
 10
12649.999298920502
 20
9850.0010722392326
 11
13450.000382942582
 21
9850.0010722392326
  0
LINE
  8
_0-0_
  6
CONTINUOUS
 62
    4
 10
14966.903280015156
 20
9349.999519848916
 11
15010.004071563366
 21
9349.999519848916
  0
LINE
  8
_0-0_
  6
CONTINUOUS
 62
    4
 10
15010.004071563366
 20
9550.0032903604988
 11
15010.004071563366
 21
9349.999519848916
  0
LINE
  8
_0-0_
  6
CONTINUOUS
 62
    4
 10
14966.903280015156
 20
9550.0032903604988
 11
15010.004071563366
 21
9550.0032903604988
  0
LINE
  8
_0-0_
  6
CONTINUOUS
 62
    4
 10
15057.00331286574
 20
9259.9983480446135
 11
15127.004807520094
 21
9190.0029775258645
  0
LINE
  8
_0-0_
  6
CONTINUOUS
 62
    4
 10
15127.004807520094
 20
9190.0029775258645
 11
15250.000197362715
 21
9190.0029775258645
  0
LINE
  8
_0-0_
  6
CONTINUOUS
 62
    4
 10
15127.004807520094
 20
9709.9998326835484
 11
15250.000197362715
 21
9709.9998326835484
  0
LINE
  8
_0-0_
  6
CONTINUOUS
 62
    4
 10
15127.004807520094
 20
9709.9998326835484
 11
15057.00331286574
 21
9640.0027124117678
  0
LINE
  8
_0-0_
  6
CONTINUOUS
 62
    4
 10
15057.00331286574
 20
9640.0027124117678
 11
15057.00331286574
 21
9259.9983480446135
  0
LINE
  8
_0-0_
  6
CONTINUOUS
 62
    4
 10
15250.000197362715
 20
9709.9998326835484
 11
15250.000197362715
 21
9190.0029775258645
  0
LINE
  8
ADD_LINE
  6
DOT
 62
    7
 10
15250.000197362715
 20
9050.0017379701821
 11
15250.000197362715
 21
9850.0010722392326
  0
LINE
  8
ADD_LINE
  6
DOT
 62
    7
 10
13549.999643568828
 20
9850.0010722392326
 11
15250.000197362715
 21
9850.0010722392326
  0
LINE
  8
ADD_LINE
  6
DOT
 62
    7
 10
13549.999643568828
 20
9050.0017379701821
 11
13549.999643568828
 21
9850.0010722392326
  0
LINE
  8
ADD_LINE
  6
DOT
 62
    7
 10
13549.999643568828
 20
9050.0017379701821
 11
15250.000197362715
 21
9050.0017379701821
  0
LINE
  8
_0-0_
  6
CONTINUOUS
 62
    3
 10
13549.999643568828
 20
9197.5715342635795
 11
13549.999643568828
 21
9702.4304010693158
  0
LINE
  8
_0-0_
  6
CONTINUOUS
 62
    7
 10
17050.001761535877
 20
8949.9998527143907
 11
17050.001761535877
 21
9049.9999882171487
  0
LINE
  8
_0-0_
  6
CONTINUOUS
 62
    7
 10
17050.001761535877
 20
9049.9999882171487
 11
17150.000147285606
 21
9049.9999882171487
  0
LINE
  8
_0-0_
  6
CONTINUOUS
 62
    7
 10
17150.000147285606
 20
9049.9999882171487
 11
17150.000147285606
 21
8949.9998527143907
  0
LINE
  8
_0-0_
  6
CONTINUOUS
 62
    7
 10
17150.000147285606
 20
8949.9998527143907
 11
17050.001761535877
 21
8949.9998527143907
  0
LINE
  8
_0-0_
  6
CONTINUOUS
 62
    7
 10
18850.000701079498
 20
8949.9998527143907
 11
18850.000701079498
 21
9049.9999882171487
  0
LINE
  8
_0-0_
  6
CONTINUOUS
 62
    7
 10
18850.000701079498
 20
9049.9999882171487
 11
18950.000836582258
 21
9049.9999882171487
  0
LINE
  8
_0-0_
  6
CONTINUOUS
 62
    7
 10
18950.000836582258
 20
9049.9999882171487
 11
18950.000836582258
 21
8949.9998527143907
  0
LINE
  8
_0-0_
  6
CONTINUOUS
 62
    7
 10
18950.000836582258
 20
8949.9998527143907
 11
18850.000701079498
 21
8949.9998527143907
  0
LINE
  8
_0-0_
  6
CONTINUOUS
 62
    7
 10
17150.000147285606
 20
9049.9999882171487
 11
18850.000701079498
 21
9049.9999882171487
  0
LINE
  8
_0-0_
  6
CONTINUOUS
 62
    7
 10
18850.000701079498
 20
8949.9998527143907
 11
17150.000147285606
 21
8949.9998527143907
  0
LINE
  8
_0-0_
  6
CONTINUOUS
 62
    7
 10
17150.000147285606
 20
9024.9995169032027
 11
18850.000701079498
 21
9024.9995169032027
  0
LINE
  8
_0-0_
  6
CONTINUOUS
 62
    7
 10
18850.000701079498
 20
8975.0003240283368
 11
17150.000147285606
 21
8975.0003240283368
  0
LINE
  8
_0-0_
  6
CONTINUOUS
 62
    7
 10
9849.9998792257993
 20
4449.9998792257993
 11
9849.9998792257993
 21
4550.00001472856
  0
LINE
  8
_0-0_
  6
CONTINUOUS
 62
    7
 10
9849.9998792257993
 20
4550.00001472856
 11
9950.0000147285609
 21
4550.00001472856
  0
LINE
  8
_0-0_
  6
CONTINUOUS
 62
    7
 10
9950.0000147285609
 20
4550.00001472856
 11
9950.0000147285609
 21
4449.9998792257993
  0
LINE
  8
_0-0_
  6
CONTINUOUS
 62
    7
 10
9950.0000147285609
 20
4449.9998792257993
 11
9849.9998792257993
 21
4449.9998792257993
  0
LINE
  8
_0-0_
  6
CONTINUOUS
 62
    7
 10
10750.000223874125
 20
4449.9998792257993
 11
10750.000223874125
 21
4550.00001472856
  0
LINE
  8
_0-0_
  6
CONTINUOUS
 62
    7
 10
10750.000223874125
 20
4550.00001472856
 11
10850.000359376885
 21
4550.00001472856
  0
LINE
  8
_0-0_
  6
CONTINUOUS
 62
    7
 10
10850.000359376885
 20
4550.00001472856
 11
10850.000359376885
 21
4449.9998792257993
  0
LINE
  8
_0-0_
  6
CONTINUOUS
 62
    7
 10
10850.000359376885
 20
4449.9998792257993
 11
10750.000223874125
 21
4449.9998792257993
  0
LINE
  8
_0-0_
  6
CONTINUOUS
 62
    7
 10
9950.0000147285609
 20
4449.9998792257993
 11
10750.000223874125
 21
4449.9998792257993
  0
LINE
  8
_0-0_
  6
CONTINUOUS
 62
    7
 10
10750.000223874125
 20
4550.00001472856
 11
9950.0000147285609
 21
4550.00001472856
  0
LINE
  8
_0-0_
  6
CONTINUOUS
 62
    7
 10
10750.000223874125
 20
4524.9995434146131
 11
9950.0000147285609
 21
4524.9995434146131
  0
LINE
  8
_0-0_
  6
CONTINUOUS
 62
    7
 10
9950.0000147285609
 20
4475.000350539749
 11
10750.000223874125
 21
4475.000350539749
  0
LINE
  8
_0-0_
  6
CONTINUOUS
 62
    7
 10
9849.9998792257993
 20
8050.0003829425823
 11
9849.9998792257993
 21
8150.0005184453412
  0
LINE
  8
_0-0_
  6
CONTINUOUS
 62
    7
 10
9849.9998792257993
 20
8150.0005184453412
 11
9950.0000147285609
 21
8150.0005184453412
  0
LINE
  8
_0-0_
  6
CONTINUOUS
 62
    7
 10
9950.0000147285609
 20
8150.0005184453412
 11
9950.0000147285609
 21
8050.0003829425823
  0
LINE
  8
_0-0_
  6
CONTINUOUS
 62
    7
 10
9950.0000147285609
 20
8050.0003829425823
 11
9849.9998792257993
 21
8050.0003829425823
  0
LINE
  8
_0-0_
  6
CONTINUOUS
 62
    7
 10
10750.000223874125
 20
8050.0003829425823
 11
10750.000223874125
 21
8150.0005184453412
  0
LINE
  8
_0-0_
  6
CONTINUOUS
 62
    7
 10
10750.000223874125
 20
8150.0005184453412
 11
10850.000359376885
 21
8150.0005184453412
  0
LINE
  8
_0-0_
  6
CONTINUOUS
 62
    7
 10
10850.000359376885
 20
8150.0005184453412
 11
10850.000359376885
 21
8050.0003829425823
  0
LINE
  8
_0-0_
  6
CONTINUOUS
 62
    7
 10
10850.000359376885
 20
8050.0003829425823
 11
10750.000223874125
 21
8050.0003829425823
  0
LINE
  8
_0-0_
  6
CONTINUOUS
 62
    7
 10
9950.0000147285609
 20
8050.0003829425823
 11
10750.000223874125
 21
8050.0003829425823
  0
LINE
  8
_0-0_
  6
CONTINUOUS
 62
    7
 10
10750.000223874125
 20
8150.0005184453412
 11
9950.0000147285609
 21
8150.0005184453412
  0
LINE
  8
_0-0_
  6
CONTINUOUS
 62
    7
 10
10750.000223874125
 20
8125.0000471313942
 11
9950.0000147285609
 21
8125.0000471313942
  0
LINE
  8
_0-0_
  6
CONTINUOUS
 62
    7
 10
9950.0000147285609
 20
8075.0008542565301
 11
10750.000223874125
 21
8075.0008542565301
  0
LINE
  8
_0-0_
  6
CONTINUOUS
 62
    7
 10
10750.000223874125
 20
8050.0003829425823
 11
10750.000223874125
 21
8150.0005184453412
  0
LINE
  8
_0-0_
  6
CONTINUOUS
 62
    7
 10
10750.000223874125
 20
8150.0005184453412
 11
10850.000359376885
 21
8150.0005184453412
  0
LINE
  8
_0-0_
  6
CONTINUOUS
 62
    7
 10
10850.000359376885
 20
8150.0005184453412
 11
10850.000359376885
 21
8050.0003829425823
  0
LINE
  8
_0-0_
  6
CONTINUOUS
 62
    7
 10
10850.000359376885
 20
8050.0003829425823
 11
10750.000223874125
 21
8050.0003829425823
  0
LINE
  8
_0-0_
  6
CONTINUOUS
 62
    7
 10
11649.999693645932
 20
8050.0003829425823
 11
11649.999693645932
 21
8150.0005184453412
  0
LINE
  8
_0-0_
  6
CONTINUOUS
 62
    7
 10
11649.999693645932
 20
8150.0005184453412
 11
11750.000704025209
 21
8150.0005184453412
  0
LINE
  8
_0-0_
  6
CONTINUOUS
 62
    7
 10
11750.000704025209
 20
8150.0005184453412
 11
11750.000704025209
 21
8050.0003829425823
  0
LINE
  8
_0-0_
  6
CONTINUOUS
 62
    7
 10
11750.000704025209
 20
8050.0003829425823
 11
11649.999693645932
 21
8050.0003829425823
  0
LINE
  8
_0-0_
  6
CONTINUOUS
 62
    7
 10
10850.000359376885
 20
8050.0003829425823
 11
11649.999693645932
 21
8050.0003829425823
  0
LINE
  8
_0-0_
  6
CONTINUOUS
 62
    7
 10
11649.999693645932
 20
8150.0005184453412
 11
10850.000359376885
 21
8150.0005184453412
  0
LINE
  8
_0-0_
  6
CONTINUOUS
 62
    7
 10
11649.999693645932
 20
8125.0000471313942
 11
10850.000359376885
 21
8125.0000471313942
  0
LINE
  8
_0-0_
  6
CONTINUOUS
 62
    7
 10
10850.000359376885
 20
8075.0008542565301
 11
11649.999693645932
 21
8075.0008542565301
  0
LINE
  8
_0-0_
  6
CONTINUOUS
 62
    7
 10
9950.0000147285609
 20
6250.0005685224496
 11
9849.9998792257993
 21
6250.0005685224496
  0
LINE
  8
_0-0_
  6
CONTINUOUS
 62
    7
 10
9849.9998792257993
 20
6250.0005685224496
 11
9849.9998792257993
 21
6350.0007040252085
  0
LINE
  8
_0-0_
  6
CONTINUOUS
 62
    7
 10
9849.9998792257993
 20
6350.0007040252085
 11
9950.0000147285609
 21
6350.0007040252085
  0
LINE
  8
_0-0_
  6
CONTINUOUS
 62
    7
 10
9950.0000147285609
 20
6350.0007040252085
 11
9950.0000147285609
 21
6250.0005685224496
  0
LINE
  8
_0-0_
  6
CONTINUOUS
 62
    7
 10
9950.0000147285609
 20
8050.0003829425823
 11
9849.9998792257993
 21
8050.0003829425823
  0
LINE
  8
_0-0_
  6
CONTINUOUS
 62
    7
 10
9849.9998792257993
 20
8050.0003829425823
 11
9849.9998792257993
 21
8150.0005184453412
  0
LINE
  8
_0-0_
  6
CONTINUOUS
 62
    7
 10
9849.9998792257993
 20
8150.0005184453412
 11
9950.0000147285609
 21
8150.0005184453412
  0
LINE
  8
_0-0_
  6
CONTINUOUS
 62
    7
 10
9950.0000147285609
 20
8150.0005184453412
 11
9950.0000147285609
 21
8050.0003829425823
  0
LINE
  8
_0-0_
  6
CONTINUOUS
 62
    7
 10
9849.9998792257993
 20
6350.0007040252085
 11
9849.9998792257993
 21
8050.0003829425823
  0
LINE
  8
_0-0_
  6
CONTINUOUS
 62
    7
 10
9950.0000147285609
 20
8050.0003829425823
 11
9950.0000147285609
 21
6350.0007040252085
  0
LINE
  8
_0-0_
  6
CONTINUOUS
 62
    7
 10
9875.000350539749
 20
6350.0007040252085
 11
9875.000350539749
 21
8050.0003829425823
  0
LINE
  8
_0-0_
  6
CONTINUOUS
 62
    7
 10
9924.9995434146131
 20
8050.0003829425823
 11
9924.9995434146131
 21
6350.0007040252085
  0
LINE
  8
_0-0_
  6
CONTINUOUS
 62
    7
 10
9950.0000147285609
 20
4449.9998792257993
 11
9849.9998792257993
 21
4449.9998792257993
  0
LINE
  8
_0-0_
  6
CONTINUOUS
 62
    7
 10
9849.9998792257993
 20
4449.9998792257993
 11
9849.9998792257993
 21
4550.00001472856
  0
LINE
  8
_0-0_
  6
CONTINUOUS
 62
    7
 10
9849.9998792257993
 20
4550.00001472856
 11
9950.0000147285609
 21
4550.00001472856
  0
LINE
  8
_0-0_
  6
CONTINUOUS
 62
    7
 10
9950.0000147285609
 20
4550.00001472856
 11
9950.0000147285609
 21
4449.9998792257993
  0
LINE
  8
_0-0_
  6
CONTINUOUS
 62
    7
 10
9950.0000147285609
 20
6249.9996936459329
 11
9849.9998792257993
 21
6249.9996936459329
  0
LINE
  8
_0-0_
  6
CONTINUOUS
 62
    7
 10
9849.9998792257993
 20
6249.9996936459329
 11
9849.9998792257993
 21
6349.9998291486936
  0
LINE
  8
_0-0_
  6
CONTINUOUS
 62
    7
 10
9849.9998792257993
 20
6349.9998291486936
 11
9950.0000147285609
 21
6349.9998291486936
  0
LINE
  8
_0-0_
  6
CONTINUOUS
 62
    7
 10
9950.0000147285609
 20
6349.9998291486936
 11
9950.0000147285609
 21
6249.9996936459329
  0
LINE
  8
_0-0_
  6
CONTINUOUS
 62
    7
 10
9849.9998792257993
 20
4550.00001472856
 11
9849.9998792257993
 21
6249.9996936459329
  0
LINE
  8
_0-0_
  6
CONTINUOUS
 62
    7
 10
9950.0000147285609
 20
6249.9996936459329
 11
9950.0000147285609
 21
4550.00001472856
  0
LINE
  8
_0-0_
  6
CONTINUOUS
 62
    7
 10
9875.000350539749
 20
4550.00001472856
 11
9875.000350539749
 21
6249.9996936459329
  0
LINE
  8
_0-0_
  6
CONTINUOUS
 62
    7
 10
9924.9995434146131
 20
6249.9996936459329
 11
9924.9995434146131
 21
4550.00001472856
  0
LINE
  8
_0-0_
  6
CONTINUOUS
 62
    7
 10
17050.001761535877
 20
10750.000542011039
 11
17050.001761535877
 21
10849.998927760767
  0
LINE
  8
_0-0_
  6
CONTINUOUS
 62
    7
 10
17050.001761535877
 20
10849.998927760767
 11
17150.000147285606
 21
10849.998927760767
  0
LINE
  8
_0-0_
  6
CONTINUOUS
 62
    7
 10
17150.000147285606
 20
10849.998927760767
 11
17150.000147285606
 21
10750.000542011039
  0
LINE
  8
_0-0_
  6
CONTINUOUS
 62
    7
 10
17150.000147285606
 20
10750.000542011039
 11
17050.001761535877
 21
10750.000542011039
  0
LINE
  8
_0-0_
  6
CONTINUOUS
 62
    7
 10
18850.000701079498
 20
10750.000542011039
 11
18850.000701079498
 21
10849.998927760767
  0
LINE
  8
_0-0_
  6
CONTINUOUS
 62
    7
 10
18850.000701079498
 20
10849.998927760767
 11
18950.000836582258
 21
10849.998927760767
  0
LINE
  8
_0-0_
  6
CONTINUOUS
 62
    7
 10
18950.000836582258
 20
10849.998927760767
 11
18950.000836582258
 21
10750.000542011039
  0
LINE
  8
_0-0_
  6
CONTINUOUS
 62
    7
 10
18950.000836582258
 20
10750.000542011039
 11
18850.000701079498
 21
10750.000542011039
  0
LINE
  8
_0-0_
  6
CONTINUOUS
 62
    7
 10
17150.000147285606
 20
10849.998927760767
 11
18850.000701079498
 21
10849.998927760767
  0
LINE
  8
_0-0_
  6
CONTINUOUS
 62
    7
 10
18850.000701079498
 20
10750.000542011039
 11
17150.000147285606
 21
10750.000542011039
  0
LINE
  8
_0-0_
  6
CONTINUOUS
 62
    7
 10
17150.000147285606
 20
10825.000206199851
 11
18850.000701079498
 21
10825.000206199851
  0
LINE
  8
_0-0_
  6
CONTINUOUS
 62
    7
 10
18850.000701079498
 20
10774.999263571957
 11
17150.000147285606
 21
10774.999263571957
  0
LINE
  8
_0-0_
  6
CONTINUOUS
 62
    7
 10
13450.000382942582
 20
10750.000542011039
 11
13450.000382942582
 21
10849.998927760767
  0
LINE
  8
_0-0_
  6
CONTINUOUS
 62
    7
 10
13450.000382942582
 20
10849.998927760767
 11
13550.000518445342
 21
10849.998927760767
  0
LINE
  8
_0-0_
  6
CONTINUOUS
 62
    7
 10
13550.000518445342
 20
10849.998927760767
 11
13550.000518445342
 21
10750.000542011039
  0
LINE
  8
_0-0_
  6
CONTINUOUS
 62
    7
 10
13550.000518445342
 20
10750.000542011039
 11
13450.000382942582
 21
10750.000542011039
  0
LINE
  8
_0-0_
  6
CONTINUOUS
 62
    7
 10
15250.000197362715
 20
10750.000542011039
 11
15250.000197362715
 21
10849.998927760767
  0
LINE
  8
_0-0_
  6
CONTINUOUS
 62
    7
 10
15250.000197362715
 20
10849.998927760767
 11
15350.000332865475
 21
10849.998927760767
  0
LINE
  8
_0-0_
  6
CONTINUOUS
 62
    7
 10
15350.000332865475
 20
10849.998927760767
 11
15350.000332865475
 21
10750.000542011039
  0
LINE
  8
_0-0_
  6
CONTINUOUS
 62
    7
 10
15350.000332865475
 20
10750.000542011039
 11
15250.000197362715
 21
10750.000542011039
  0
LINE
  8
_0-0_
  6
CONTINUOUS
 62
    7
 10
13550.000518445342
 20
10849.998927760767
 11
15250.000197362715
 21
10849.998927760767
  0
LINE
  8
_0-0_
  6
CONTINUOUS
 62
    7
 10
15250.000197362715
 20
10750.000542011039
 11
13550.000518445342
 21
10750.000542011039
  0
LINE
  8
_0-0_
  6
CONTINUOUS
 62
    7
 10
13550.000518445342
 20
10825.000206199851
 11
15250.000197362715
 21
10825.000206199851
  0
LINE
  8
_0-0_
  6
CONTINUOUS
 62
    7
 10
15250.000197362715
 20
10774.999263571957
 11
13550.000518445342
 21
10774.999263571957
  0
LINE
  8
_0-0_
  6
CONTINUOUS
 62
    7
 10
16249.998927760767
 20
4449.9998792257993
 11
16150.000542011039
 21
4449.9998792257993
  0
LINE
  8
_0-0_
  6
CONTINUOUS
 62
    7
 10
16150.000542011039
 20
4449.9998792257993
 11
16150.000542011039
 21
4550.00001472856
  0
LINE
  8
_0-0_
  6
CONTINUOUS
 62
    7
 10
16150.000542011039
 20
4550.00001472856
 11
16249.998927760767
 21
4550.00001472856
  0
LINE
  8
_0-0_
  6
CONTINUOUS
 62
    7
 10
16249.998927760767
 20
4550.00001472856
 11
16249.998927760767
 21
4449.9998792257993
  0
LINE
  8
_0-0_
  6
CONTINUOUS
 62
    7
 10
16249.998927760767
 20
6249.9996936459329
 11
16150.000542011039
 21
6249.9996936459329
  0
LINE
  8
_0-0_
  6
CONTINUOUS
 62
    7
 10
16150.000542011039
 20
6249.9996936459329
 11
16150.000542011039
 21
6349.9998291486936
  0
LINE
  8
_0-0_
  6
CONTINUOUS
 62
    7
 10
16150.000542011039
 20
6349.9998291486936
 11
16249.998927760767
 21
6349.9998291486936
  0
LINE
  8
_0-0_
  6
CONTINUOUS
 62
    7
 10
16249.998927760767
 20
6349.9998291486936
 11
16249.998927760767
 21
6249.9996936459329
  0
LINE
  8
_0-0_
  6
CONTINUOUS
 62
    7
 10
16150.000542011039
 20
4550.00001472856
 11
16150.000542011039
 21
6249.9996936459329
  0
LINE
  8
_0-0_
  6
CONTINUOUS
 62
    7
 10
16249.998927760767
 20
6249.9996936459329
 11
16249.998927760767
 21
4550.00001472856
  0
LINE
  8
_0-0_
  6
CONTINUOUS
 62
    7
 10
16174.999263571957
 20
4550.00001472856
 11
16174.999263571957
 21
6249.9996936459329
  0
LINE
  8
_0-0_
  6
CONTINUOUS
 62
    7
 10
16225.000206199851
 20
6249.9996936459329
 11
16225.000206199851
 21
4550.00001472856
  0
LINE
  8
_0-0_
  6
CONTINUOUS
 62
    7
 10
16249.998927760767
 20
6250.0005685224496
 11
16150.000542011039
 21
6250.0005685224496
  0
LINE
  8
_0-0_
  6
CONTINUOUS
 62
    7
 10
16150.000542011039
 20
6250.0005685224496
 11
16150.000542011039
 21
6350.0007040252085
  0
LINE
  8
_0-0_
  6
CONTINUOUS
 62
    7
 10
16150.000542011039
 20
6350.0007040252085
 11
16249.998927760767
 21
6350.0007040252085
  0
LINE
  8
_0-0_
  6
CONTINUOUS
 62
    7
 10
16249.998927760767
 20
6350.0007040252085
 11
16249.998927760767
 21
6250.0005685224496
  0
LINE
  8
_0-0_
  6
CONTINUOUS
 62
    7
 10
16249.998927760767
 20
8050.0003829425823
 11
16150.000542011039
 21
8050.0003829425823
  0
LINE
  8
_0-0_
  6
CONTINUOUS
 62
    7
 10
16150.000542011039
 20
8050.0003829425823
 11
16150.000542011039
 21
8150.0005184453412
  0
LINE
  8
_0-0_
  6
CONTINUOUS
 62
    7
 10
16150.000542011039
 20
8150.0005184453412
 11
16249.998927760767
 21
8150.0005184453412
  0
LINE
  8
_0-0_
  6
CONTINUOUS
 62
    7
 10
16249.998927760767
 20
8150.0005184453412
 11
16249.998927760767
 21
8050.0003829425823
  0
LINE
  8
_0-0_
  6
CONTINUOUS
 62
    7
 10
16150.000542011039
 20
6350.0007040252085
 11
16150.000542011039
 21
8050.0003829425823
  0
LINE
  8
_0-0_
  6
CONTINUOUS
 62
    7
 10
16249.998927760767
 20
8050.0003829425823
 11
16249.998927760767
 21
6350.0007040252085
  0
LINE
  8
_0-0_
  6
CONTINUOUS
 62
    7
 10
16174.999263571957
 20
6350.0007040252085
 11
16174.999263571957
 21
8050.0003829425823
  0
LINE
  8
_0-0_
  6
CONTINUOUS
 62
    7
 10
16225.000206199851
 20
8050.0003829425823
 11
16225.000206199851
 21
6350.0007040252085
  0
LINE
  8
_0-0_
  6
CONTINUOUS
 62
    7
 10
13450.000382942582
 20
9850.000197362715
 11
13450.000382942582
 21
9950.0003328654748
  0
LINE
  8
_0-0_
  6
CONTINUOUS
 62
    7
 10
13450.000382942582
 20
9950.0003328654748
 11
13550.000518445342
 21
9950.0003328654748
  0
LINE
  8
_0-0_
  6
CONTINUOUS
 62
    7
 10
13550.000518445342
 20
9950.0003328654748
 11
13550.000518445342
 21
9850.000197362715
  0
LINE
  8
_0-0_
  6
CONTINUOUS
 62
    7
 10
13550.000518445342
 20
9850.000197362715
 11
13450.000382942582
 21
9850.000197362715
  0
LINE
  8
_0-0_
  6
CONTINUOUS
 62
    7
 10
15250.000197362715
 20
9850.000197362715
 11
15250.000197362715
 21
9950.0003328654748
  0
LINE
  8
_0-0_
  6
CONTINUOUS
 62
    7
 10
15250.000197362715
 20
9950.0003328654748
 11
15350.000332865475
 21
9950.0003328654748
  0
LINE
  8
_0-0_
  6
CONTINUOUS
 62
    7
 10
15350.000332865475
 20
9950.0003328654748
 11
15350.000332865475
 21
9850.000197362715
  0
LINE
  8
_0-0_
  6
CONTINUOUS
 62
    7
 10
15350.000332865475
 20
9850.000197362715
 11
15250.000197362715
 21
9850.000197362715
  0
LINE
  8
_0-0_
  6
CONTINUOUS
 62
    7
 10
13550.000518445342
 20
9950.0003328654748
 11
15250.000197362715
 21
9950.0003328654748
  0
LINE
  8
_0-0_
  6
CONTINUOUS
 62
    7
 10
15250.000197362715
 20
9850.000197362715
 11
13550.000518445342
 21
9850.000197362715
  0
LINE
  8
_0-0_
  6
CONTINUOUS
 62
    7
 10
13550.000518445342
 20
9924.9998615515269
 11
15250.000197362715
 21
9924.9998615515269
  0
LINE
  8
_0-0_
  6
CONTINUOUS
 62
    7
 10
15250.000197362715
 20
9875.0006686766628
 11
13550.000518445342
 21
9875.0006686766628
  0
LINE
  8
_0-0_
  6
CONTINUOUS
 62
    7
 10
11750.000704025209
 20
8050.0003829425823
 11
11650.00056852245
 21
8050.0003829425823
  0
LINE
  8
_0-0_
  6
CONTINUOUS
 62
    7
 10
11650.00056852245
 20
8050.0003829425823
 11
11650.00056852245
 21
8150.0005184453412
  0
LINE
  8
_0-0_
  6
CONTINUOUS
 62
    7
 10
11650.00056852245
 20
8150.0005184453412
 11
11750.000704025209
 21
8150.0005184453412
  0
LINE
  8
_0-0_
  6
CONTINUOUS
 62
    7
 10
11750.000704025209
 20
8150.0005184453412
 11
11750.000704025209
 21
8050.0003829425823
  0
LINE
  8
_0-0_
  6
CONTINUOUS
 62
    7
 10
11750.000704025209
 20
8949.9998527143907
 11
11650.00056852245
 21
8949.9998527143907
  0
LINE
  8
_0-0_
  6
CONTINUOUS
 62
    7
 10
11650.00056852245
 20
8949.9998527143907
 11
11650.00056852245
 21
9050.0008630936663
  0
LINE
  8
_0-0_
  6
CONTINUOUS
 62
    7
 10
11650.00056852245
 20
9050.0008630936663
 11
11750.000704025209
 21
9050.0008630936663
  0
LINE
  8
_0-0_
  6
CONTINUOUS
 62
    7
 10
11750.000704025209
 20
9050.0008630936663
 11
11750.000704025209
 21
8949.9998527143907
  0
LINE
  8
_0-0_
  6
CONTINUOUS
 62
    7
 10
11750.000704025209
 20
8150.0005184453412
 11
11750.000704025209
 21
8949.9998527143907
  0
LINE
  8
_0-0_
  6
CONTINUOUS
 62
    7
 10
11650.00056852245
 20
8949.9998527143907
 11
11650.00056852245
 21
8150.0005184453412
  0
LINE
  8
_0-0_
  6
CONTINUOUS
 62
    7
 10
11675.001039836397
 20
8949.9998527143907
 11
11675.001039836397
 21
8150.0005184453412
  0
LINE
  8
_0-0_
  6
CONTINUOUS
 62
    7
 10
11725.000232711262
 20
8150.0005184453412
 11
11725.000232711262
 21
8949.9998527143907
  0
LINE
  8
_0-0_
  6
CONTINUOUS
 62
    7
 10
12650.000173797018
 20
9850.000197362715
 11
12550.000038294258
 21
9850.000197362715
  0
LINE
  8
_0-0_
  6
CONTINUOUS
 62
    7
 10
12550.000038294258
 20
9850.000197362715
 11
12550.000038294258
 21
9950.0003328654748
  0
LINE
  8
_0-0_
  6
CONTINUOUS
 62
    7
 10
12550.000038294258
 20
9950.0003328654748
 11
12650.000173797018
 21
9950.0003328654748
  0
LINE
  8
_0-0_
  6
CONTINUOUS
 62
    7
 10
12650.000173797018
 20
9950.0003328654748
 11
12650.000173797018
 21
9850.000197362715
  0
LINE
  8
_0-0_
  6
CONTINUOUS
 62
    7
 10
12550.000038294258
 20
10750.000542011039
 11
12550.000038294258
 21
10850.000677513799
  0
LINE
  8
_0-0_
  6
CONTINUOUS
 62
    7
 10
12550.000038294258
 20
10850.000677513799
 11
12650.000173797018
 21
10850.000677513799
  0
LINE
  8
_0-0_
  6
CONTINUOUS
 62
    7
 10
12650.000173797018
 20
10850.000677513799
 11
12650.000173797018
 21
10750.000542011039
  0
LINE
  8
_0-0_
  6
CONTINUOUS
 62
    7
 10
12650.000173797018
 20
9950.0003328654748
 11
12650.000173797018
 21
10750.000542011039
  0
LINE
  8
_0-0_
  6
CONTINUOUS
 62
    7
 10
12550.000038294258
 20
10750.000542011039
 11
12550.000038294258
 21
9950.0003328654748
  0
LINE
  8
_0-0_
  6
CONTINUOUS
 62
    7
 10
12575.000509608204
 20
10750.000542011039
 11
12575.000509608204
 21
9950.0003328654748
  0
LINE
  8
_0-0_
  6
CONTINUOUS
 62
    7
 10
12624.99970248307
 20
9950.0003328654748
 11
12624.99970248307
 21
10750.000542011039
  0
LINE
  8
_0-0_
  6
CONTINUOUS
 62
    7
 10
13550.000518445342
 20
8949.9998527143907
 11
13450.000382942582
 21
8949.9998527143907
  0
LINE
  8
_0-0_
  6
CONTINUOUS
 62
    7
 10
13450.000382942582
 20
8949.9998527143907
 11
13450.000382942582
 21
9049.9999882171487
  0
LINE
  8
_0-0_
  6
CONTINUOUS
 62
    7
 10
13450.000382942582
 20
9049.9999882171487
 11
13550.000518445342
 21
9049.9999882171487
  0
LINE
  8
_0-0_
  6
CONTINUOUS
 62
    7
 10
13550.000518445342
 20
9049.9999882171487
 11
13550.000518445342
 21
8949.9998527143907
  0
LINE
  8
_0-0_
  6
CONTINUOUS
 62
    7
 10
13550.000518445342
 20
9849.9993224861973
 11
13450.000382942582
 21
9849.9993224861973
  0
LINE
  8
_0-0_
  6
CONTINUOUS
 62
    7
 10
13450.000382942582
 20
9849.9993224861973
 11
13450.000382942582
 21
9950.0003328654748
  0
LINE
  8
_0-0_
  6
CONTINUOUS
 62
    7
 10
13450.000382942582
 20
9950.0003328654748
 11
13550.000518445342
 21
9950.0003328654748
  0
LINE
  8
_0-0_
  6
CONTINUOUS
 62
    7
 10
13550.000518445342
 20
9950.0003328654748
 11
13550.000518445342
 21
9849.9993224861973
  0
LINE
  8
_0-0_
  6
CONTINUOUS
 62
    7
 10
13550.000518445342
 20
9049.9999882171487
 11
13550.000518445342
 21
9849.9993224861973
  0
LINE
  8
_0-0_
  6
CONTINUOUS
 62
    7
 10
13450.000382942582
 20
9849.9993224861973
 11
13450.000382942582
 21
9049.9999882171487
  0
LINE
  8
_0-0_
  6
CONTINUOUS
 62
    7
 10
13475.00085425653
 20
9849.9993224861973
 11
13475.00085425653
 21
9049.9999882171487
  0
LINE
  8
_0-0_
  6
CONTINUOUS
 62
    7
 10
13525.000047131394
 20
9049.9999882171487
 11
13525.000047131394
 21
9849.9993224861973
  0
LINE
  8
_0-0_
  6
CONTINUOUS
 62
    7
 10
15350.000332865475
 20
9850.000197362715
 11
15250.000197362715
 21
9850.000197362715
  0
LINE
  8
_0-0_
  6
CONTINUOUS
 62
    7
 10
15250.000197362715
 20
9850.000197362715
 11
15250.000197362715
 21
9950.0003328654748
  0
LINE
  8
_0-0_
  6
CONTINUOUS
 62
    7
 10
15250.000197362715
 20
9950.0003328654748
 11
15350.000332865475
 21
9950.0003328654748
  0
LINE
  8
_0-0_
  6
CONTINUOUS
 62
    7
 10
15350.000332865475
 20
9950.0003328654748
 11
15350.000332865475
 21
9850.000197362715
  0
LINE
  8
_0-0_
  6
CONTINUOUS
 62
    7
 10
15350.000332865475
 20
10750.000542011039
 11
15250.000197362715
 21
10750.000542011039
  0
LINE
  8
_0-0_
  6
CONTINUOUS
 62
    7
 10
15250.000197362715
 20
10750.000542011039
 11
15250.000197362715
 21
10850.000677513799
  0
LINE
  8
_0-0_
  6
CONTINUOUS
 62
    7
 10
15250.000197362715
 20
10850.000677513799
 11
15350.000332865475
 21
10850.000677513799
  0
LINE
  8
_0-0_
  6
CONTINUOUS
 62
    7
 10
15350.000332865475
 20
10850.000677513799
 11
15350.000332865475
 21
10750.000542011039
  0
LINE
  8
_0-0_
  6
CONTINUOUS
 62
    7
 10
15350.000332865475
 20
9950.0003328654748
 11
15350.000332865475
 21
10750.000542011039
  0
LINE
  8
_0-0_
  6
CONTINUOUS
 62
    7
 10
15250.000197362715
 20
10750.000542011039
 11
15250.000197362715
 21
9950.0003328654748
  0
LINE
  8
_0-0_
  6
CONTINUOUS
 62
    7
 10
15275.000668676663
 20
10750.000542011039
 11
15275.000668676663
 21
9950.0003328654748
  0
LINE
  8
_0-0_
  6
CONTINUOUS
 62
    7
 10
15324.999861551527
 20
9950.0003328654748
 11
15324.999861551527
 21
10750.000542011039
  0
LINE
  8
_0-0_
  6
CONTINUOUS
 62
    7
 10
15350.000332865475
 20
8949.9998527143907
 11
15250.000197362715
 21
8949.9998527143907
  0
LINE
  8
_0-0_
  6
CONTINUOUS
 62
    7
 10
15250.000197362715
 20
8949.9998527143907
 11
15250.000197362715
 21
9049.9999882171487
  0
LINE
  8
_0-0_
  6
CONTINUOUS
 62
    7
 10
15250.000197362715
 20
9049.9999882171487
 11
15350.000332865475
 21
9049.9999882171487
  0
LINE
  8
_0-0_
  6
CONTINUOUS
 62
    7
 10
15350.000332865475
 20
9049.9999882171487
 11
15350.000332865475
 21
8949.9998527143907
  0
LINE
  8
_0-0_
  6
CONTINUOUS
 62
    7
 10
15350.000332865475
 20
9849.9993224861973
 11
15250.000197362715
 21
9849.9993224861973
  0
LINE
  8
_0-0_
  6
CONTINUOUS
 62
    7
 10
15250.000197362715
 20
9849.9993224861973
 11
15250.000197362715
 21
9950.0003328654748
  0
LINE
  8
_0-0_
  6
CONTINUOUS
 62
    7
 10
15250.000197362715
 20
9950.0003328654748
 11
15350.000332865475
 21
9950.0003328654748
  0
LINE
  8
_0-0_
  6
CONTINUOUS
 62
    7
 10
15350.000332865475
 20
9950.0003328654748
 11
15350.000332865475
 21
9849.9993224861973
  0
LINE
  8
_0-0_
  6
CONTINUOUS
 62
    7
 10
15350.000332865475
 20
9049.9999882171487
 11
15350.000332865475
 21
9849.9993224861973
  0
LINE
  8
_0-0_
  6
CONTINUOUS
 62
    7
 10
15250.000197362715
 20
9849.9993224861973
 11
15250.000197362715
 21
9049.9999882171487
  0
LINE
  8
_0-0_
  6
CONTINUOUS
 62
    7
 10
15275.000668676663
 20
9849.9993224861973
 11
15275.000668676663
 21
9049.9999882171487
  0
LINE
  8
_0-0_
  6
CONTINUOUS
 62
    7
 10
15324.999861551527
 20
9049.9999882171487
 11
15324.999861551527
 21
9849.9993224861973
  0
LINE
  8
_0-0_
  6
CONTINUOUS
 62
    7
 10
17150.000147285606
 20
9850.000197362715
 11
17050.001761535877
 21
9850.000197362715
  0
LINE
  8
_0-0_
  6
CONTINUOUS
 62
    7
 10
17050.001761535877
 20
9850.000197362715
 11
17050.001761535877
 21
9950.0003328654748
  0
LINE
  8
_0-0_
  6
CONTINUOUS
 62
    7
 10
17050.001761535877
 20
9950.0003328654748
 11
17150.000147285606
 21
9950.0003328654748
  0
LINE
  8
_0-0_
  6
CONTINUOUS
 62
    7
 10
17150.000147285606
 20
9950.0003328654748
 11
17150.000147285606
 21
9850.000197362715
  0
LINE
  8
_0-0_
  6
CONTINUOUS
 62
    7
 10
17150.000147285606
 20
10750.000542011039
 11
17050.001761535877
 21
10750.000542011039
  0
LINE
  8
_0-0_
  6
CONTINUOUS
 62
    7
 10
17050.001761535877
 20
10750.000542011039
 11
17050.001761535877
 21
10850.000677513799
  0
LINE
  8
_0-0_
  6
CONTINUOUS
 62
    7
 10
17050.001761535877
 20
10850.000677513799
 11
17150.000147285606
 21
10850.000677513799
  0
LINE
  8
_0-0_
  6
CONTINUOUS
 62
    7
 10
17150.000147285606
 20
10850.000677513799
 11
17150.000147285606
 21
10750.000542011039
  0
LINE
  8
_0-0_
  6
CONTINUOUS
 62
    7
 10
17150.000147285606
 20
9950.0003328654748
 11
17150.000147285606
 21
10750.000542011039
  0
LINE
  8
_0-0_
  6
CONTINUOUS
 62
    7
 10
17050.001761535877
 20
10750.000542011039
 11
17050.001761535877
 21
9950.0003328654748
  0
LINE
  8
_0-0_
  6
CONTINUOUS
 62
    7
 10
17075.000483096796
 20
10750.000542011039
 11
17075.000483096796
 21
9950.0003328654748
  0
LINE
  8
_0-0_
  6
CONTINUOUS
 62
    7
 10
17125.001425724691
 20
9950.0003328654748
 11
17125.001425724691
 21
10750.000542011039
  0
LINE
  8
_0-0_
  6
CONTINUOUS
 62
    7
 10
18949.999086829226
 20
9850.000197362715
 11
18850.000701079498
 21
9850.000197362715
  0
LINE
  8
_0-0_
  6
CONTINUOUS
 62
    7
 10
18850.000701079498
 20
9850.000197362715
 11
18850.000701079498
 21
9950.0003328654748
  0
LINE
  8
_0-0_
  6
CONTINUOUS
 62
    7
 10
18850.000701079498
 20
9950.0003328654748
 11
18949.999086829226
 21
9950.0003328654748
  0
LINE
  8
_0-0_
  6
CONTINUOUS
 62
    7
 10
18949.999086829226
 20
9950.0003328654748
 11
18949.999086829226
 21
9850.000197362715
  0
LINE
  8
_0-0_
  6
CONTINUOUS
 62
    7
 10
18949.999086829226
 20
10750.000542011039
 11
18850.000701079498
 21
10750.000542011039
  0
LINE
  8
_0-0_
  6
CONTINUOUS
 62
    7
 10
18850.000701079498
 20
10750.000542011039
 11
18850.000701079498
 21
10850.000677513799
  0
LINE
  8
_0-0_
  6
CONTINUOUS
 62
    7
 10
18850.000701079498
 20
10850.000677513799
 11
18949.999086829226
 21
10850.000677513799
  0
LINE
  8
_0-0_
  6
CONTINUOUS
 62
    7
 10
18949.999086829226
 20
10850.000677513799
 11
18949.999086829226
 21
10750.000542011039
  0
LINE
  8
_0-0_
  6
CONTINUOUS
 62
    7
 10
18949.999086829226
 20
9950.0003328654748
 11
18949.999086829226
 21
10750.000542011039
  0
LINE
  8
_0-0_
  6
CONTINUOUS
 62
    7
 10
18850.000701079498
 20
10750.000542011039
 11
18850.000701079498
 21
9950.0003328654748
  0
LINE
  8
_0-0_
  6
CONTINUOUS
 62
    7
 10
18874.999422640412
 20
10750.000542011039
 11
18874.999422640412
 21
9950.0003328654748
  0
LINE
  8
_0-0_
  6
CONTINUOUS
 62
    7
 10
18925.000365268308
 20
9950.0003328654748
 11
18925.000365268308
 21
10750.000542011039
  0
LINE
  8
_0-0_
  6
CONTINUOUS
 62
    7
 10
17150.000147285606
 20
8050.0003829425823
 11
17050.001761535877
 21
8050.0003829425823
  0
LINE
  8
_0-0_
  6
CONTINUOUS
 62
    7
 10
17050.001761535877
 20
8050.0003829425823
 11
17050.001761535877
 21
8150.0005184453412
  0
LINE
  8
_0-0_
  6
CONTINUOUS
 62
    7
 10
17050.001761535877
 20
8150.0005184453412
 11
17150.000147285606
 21
8150.0005184453412
  0
LINE
  8
_0-0_
  6
CONTINUOUS
 62
    7
 10
17150.000147285606
 20
8150.0005184453412
 11
17150.000147285606
 21
8050.0003829425823
  0
LINE
  8
_0-0_
  6
CONTINUOUS
 62
    7
 10
17150.000147285606
 20
8949.9998527143907
 11
17050.001761535877
 21
8949.9998527143907
  0
LINE
  8
_0-0_
  6
CONTINUOUS
 62
    7
 10
17050.001761535877
 20
8949.9998527143907
 11
17050.001761535877
 21
9050.0008630936663
  0
LINE
  8
_0-0_
  6
CONTINUOUS
 62
    7
 10
17050.001761535877
 20
9050.0008630936663
 11
17150.000147285606
 21
9050.0008630936663
  0
LINE
  8
_0-0_
  6
CONTINUOUS
 62
    7
 10
17150.000147285606
 20
9050.0008630936663
 11
17150.000147285606
 21
8949.9998527143907
  0
LINE
  8
_0-0_
  6
CONTINUOUS
 62
    7
 10
17150.000147285606
 20
8150.0005184453412
 11
17150.000147285606
 21
8949.9998527143907
  0
LINE
  8
_0-0_
  6
CONTINUOUS
 62
    7
 10
17050.001761535877
 20
8949.9998527143907
 11
17050.001761535877
 21
8150.0005184453412
  0
LINE
  8
_0-0_
  6
CONTINUOUS
 62
    7
 10
17075.000483096796
 20
8949.9998527143907
 11
17075.000483096796
 21
8150.0005184453412
  0
LINE
  8
_0-0_
  6
CONTINUOUS
 62
    7
 10
17125.001425724691
 20
8150.0005184453412
 11
17125.001425724691
 21
8949.9998527143907
  0
LINE
  8
_0-0_
  6
CONTINUOUS
 62
    7
 10
18949.999086829226
 20
8050.0003829425823
 11
18850.000701079498
 21
8050.0003829425823
  0
LINE
  8
_0-0_
  6
CONTINUOUS
 62
    7
 10
18850.000701079498
 20
8050.0003829425823
 11
18850.000701079498
 21
8150.0005184453412
  0
LINE
  8
_0-0_
  6
CONTINUOUS
 62
    7
 10
18850.000701079498
 20
8150.0005184453412
 11
18949.999086829226
 21
8150.0005184453412
  0
LINE
  8
_0-0_
  6
CONTINUOUS
 62
    7
 10
18949.999086829226
 20
8150.0005184453412
 11
18949.999086829226
 21
8050.0003829425823
  0
LINE
  8
_0-0_
  6
CONTINUOUS
 62
    7
 10
18949.999086829226
 20
8949.9998527143907
 11
18850.000701079498
 21
8949.9998527143907
  0
LINE
  8
_0-0_
  6
CONTINUOUS
 62
    7
 10
18850.000701079498
 20
8949.9998527143907
 11
18850.000701079498
 21
9050.0008630936663
  0
LINE
  8
_0-0_
  6
CONTINUOUS
 62
    7
 10
18850.000701079498
 20
9050.0008630936663
 11
18949.999086829226
 21
9050.0008630936663
  0
LINE
  8
_0-0_
  6
CONTINUOUS
 62
    7
 10
18949.999086829226
 20
9050.0008630936663
 11
18949.999086829226
 21
8949.9998527143907
  0
LINE
  8
_0-0_
  6
CONTINUOUS
 62
    7
 10
18949.999086829226
 20
8150.0005184453412
 11
18949.999086829226
 21
8949.9998527143907
  0
LINE
  8
_0-0_
  6
CONTINUOUS
 62
    7
 10
18850.000701079498
 20
8949.9998527143907
 11
18850.000701079498
 21
8150.0005184453412
  0
LINE
  8
_0-0_
  6
CONTINUOUS
 62
    7
 10
18874.999422640412
 20
8949.9998527143907
 11
18874.999422640412
 21
8150.0005184453412
  0
LINE
  8
_0-0_
  6
CONTINUOUS
 62
    7
 10
18925.000365268308
 20
8150.0005184453412
 11
18925.000365268308
 21
8949.9998527143907
  0
LINE
  8
_0-0_
  6
CONTINUOUS
 62
    7
 10
18949.999086829226
 20
7150.0000382942571
 11
18850.000701079498
 21
7150.0000382942571
  0
LINE
  8
_0-0_
  6
CONTINUOUS
 62
    7
 10
18850.000701079498
 20
7150.0000382942571
 11
18850.000701079498
 21
7250.0001737970179
  0
LINE
  8
_0-0_
  6
CONTINUOUS
 62
    7
 10
18850.000701079498
 20
7250.0001737970179
 11
18949.999086829226
 21
7250.0001737970179
  0
LINE
  8
_0-0_
  6
CONTINUOUS
 62
    7
 10
18949.999086829226
 20
7250.0001737970179
 11
18949.999086829226
 21
7150.0000382942571
  0
LINE
  8
_0-0_
  6
CONTINUOUS
 62
    7
 10
18949.999086829226
 20
8050.0003829425823
 11
18850.000701079498
 21
8050.0003829425823
  0
LINE
  8
_0-0_
  6
CONTINUOUS
 62
    7
 10
18850.000701079498
 20
8050.0003829425823
 11
18850.000701079498
 21
8150.0005184453412
  0
LINE
  8
_0-0_
  6
CONTINUOUS
 62
    7
 10
18850.000701079498
 20
8150.0005184453412
 11
18949.999086829226
 21
8150.0005184453412
  0
LINE
  8
_0-0_
  6
CONTINUOUS
 62
    7
 10
18949.999086829226
 20
8150.0005184453412
 11
18949.999086829226
 21
8050.0003829425823
  0
LINE
  8
_0-0_
  6
CONTINUOUS
 62
    7
 10
18949.999086829226
 20
7250.0001737970179
 11
18949.999086829226
 21
8050.0003829425823
  0
LINE
  8
_0-0_
  6
CONTINUOUS
 62
    7
 10
18850.000701079498
 20
8050.0003829425823
 11
18850.000701079498
 21
7250.0001737970179
  0
LINE
  8
_0-0_
  6
CONTINUOUS
 62
    7
 10
18874.999422640412
 20
8050.0003829425823
 11
18874.999422640412
 21
7250.0001737970179
  0
LINE
  8
_0-0_
  6
CONTINUOUS
 62
    7
 10
18925.000365268308
 20
7250.0001737970179
 11
18925.000365268308
 21
8050.0003829425823
  0
LINE
  8
_0-0_
  6
CONTINUOUS
 62
    7
 10
18949.999086829226
 20
4449.9998792257993
 11
18850.000701079498
 21
4449.9998792257993
  0
LINE
  8
_0-0_
  6
CONTINUOUS
 62
    7
 10
18850.000701079498
 20
4449.9998792257993
 11
18850.000701079498
 21
4550.00001472856
  0
LINE
  8
_0-0_
  6
CONTINUOUS
 62
    7
 10
18850.000701079498
 20
4550.00001472856
 11
18949.999086829226
 21
4550.00001472856
  0
LINE
  8
_0-0_
  6
CONTINUOUS
 62
    7
 10
18949.999086829226
 20
4550.00001472856
 11
18949.999086829226
 21
4449.9998792257993
  0
LINE
  8
_0-0_
  6
CONTINUOUS
 62
    7
 10
18949.999086829226
 20
5350.0002238741245
 11
18850.000701079498
 21
5350.0002238741245
  0
LINE
  8
_0-0_
  6
CONTINUOUS
 62
    7
 10
18850.000701079498
 20
5350.0002238741245
 11
18850.000701079498
 21
5450.0003593768852
  0
LINE
  8
_0-0_
  6
CONTINUOUS
 62
    7
 10
18850.000701079498
 20
5450.0003593768852
 11
18949.999086829226
 21
5450.0003593768852
  0
LINE
  8
_0-0_
  6
CONTINUOUS
 62
    7
 10
18949.999086829226
 20
5450.0003593768852
 11
18949.999086829226
 21
5350.0002238741245
  0
LINE
  8
_0-0_
  6
CONTINUOUS
 62
    7
 10
18949.999086829226
 20
4550.00001472856
 11
18949.999086829226
 21
5350.0002238741245
  0
LINE
  8
_0-0_
  6
CONTINUOUS
 62
    7
 10
18850.000701079498
 20
5350.0002238741245
 11
18850.000701079498
 21
4550.00001472856
  0
LINE
  8
_0-0_
  6
CONTINUOUS
 62
    7
 10
18874.999422640412
 20
5350.0002238741245
 11
18874.999422640412
 21
4550.00001472856
  0
LINE
  8
_0-0_
  6
CONTINUOUS
 62
    7
 10
18925.000365268308
 20
4550.00001472856
 11
18925.000365268308
 21
5350.0002238741245
  0
LINE
  8
_0-0_
  6
CONTINUOUS
 62
    7
 10
11650.00056852245
 20
10849.998927760767
 11
11750.000704025209
 21
10849.998927760767
  0
LINE
  8
_0-0_
  6
CONTINUOUS
 62
    7
 10
12650.001048673534
 20
10750.000542011039
 11
12550.000913170772
 21
10750.000542011039
  0
LINE
  8
_0-0_
  6
CONTINUOUS
 62
    7
 10
12550.000038294258
 20
10750.000542011039
 11
12550.000038294258
 21
10849.998927760767
  0
LINE
  8
_0-0_
  6
CONTINUOUS
 62
    7
 10
12550.000038294258
 20
10849.998927760767
 11
12650.000173797018
 21
10849.998927760767
  0
LINE
  8
_0-0_
  6
CONTINUOUS
 62
    7
 10
12650.000173797018
 20
10849.998927760767
 11
12650.000173797018
 21
10750.000542011039
  0
LINE
  8
_0-0_
  6
CONTINUOUS
 62
    7
 10
12650.000173797018
 20
10750.000542011039
 11
12550.000038294258
 21
10750.000542011039
  0
LINE
  8
_0-0_
  6
CONTINUOUS
 62
    7
 10
13450.000382942582
 20
10750.000542011039
 11
13450.000382942582
 21
10849.998927760767
  0
LINE
  8
_0-0_
  6
CONTINUOUS
 62
    7
 10
13450.000382942582
 20
10849.998927760767
 11
13550.000518445342
 21
10849.998927760767
  0
LINE
  8
_0-0_
  6
CONTINUOUS
 62
    7
 10
13550.000518445342
 20
10849.998927760767
 11
13550.000518445342
 21
10750.000542011039
  0
LINE
  8
_0-0_
  6
CONTINUOUS
 62
    7
 10
13550.000518445342
 20
10750.000542011039
 11
13450.000382942582
 21
10750.000542011039
  0
LINE
  8
_0-0_
  6
CONTINUOUS
 62
    7
 10
12650.000173797018
 20
10750.000542011039
 11
13450.000382942582
 21
10750.000542011039
  0
LINE
  8
_0-0_
  6
CONTINUOUS
 62
    7
 10
13450.000382942582
 20
10849.998927760767
 11
12650.000173797018
 21
10849.998927760767
  0
LINE
  8
_0-0_
  6
CONTINUOUS
 62
    7
 10
13450.000382942582
 20
10825.000206199851
 11
12650.000173797018
 21
10825.000206199851
  0
LINE
  8
_0-0_
  6
CONTINUOUS
 62
    7
 10
12650.000173797018
 20
10774.999263571957
 11
13450.000382942582
 21
10774.999263571957
  0
LINE
  8
_0-0_
  6
CONTINUOUS
 62
    7
 10
15250.000197362715
 20
10750.000542011039
 11
15250.000197362715
 21
10849.998927760767
  0
LINE
  8
_0-0_
  6
CONTINUOUS
 62
    7
 10
15250.000197362715
 20
10849.998927760767
 11
15350.000332865475
 21
10849.998927760767
  0
LINE
  8
_0-0_
  6
CONTINUOUS
 62
    7
 10
15350.000332865475
 20
10849.998927760767
 11
15350.000332865475
 21
10750.000542011039
  0
LINE
  8
_0-0_
  6
CONTINUOUS
 62
    7
 10
15350.000332865475
 20
10750.000542011039
 11
15250.000197362715
 21
10750.000542011039
  0
LINE
  8
_0-0_
  6
CONTINUOUS
 62
    7
 10
16150.000542011039
 20
10750.000542011039
 11
16150.000542011039
 21
10849.998927760767
  0
LINE
  8
_0-0_
  6
CONTINUOUS
 62
    7
 10
16150.000542011039
 20
10849.998927760767
 11
16250.000677513799
 21
10849.998927760767
  0
LINE
  8
_0-0_
  6
CONTINUOUS
 62
    7
 10
16250.000677513799
 20
10849.998927760767
 11
16250.000677513799
 21
10750.000542011039
  0
LINE
  8
_0-0_
  6
CONTINUOUS
 62
    7
 10
16250.000677513799
 20
10750.000542011039
 11
16150.000542011039
 21
10750.000542011039
  0
LINE
  8
_0-0_
  6
CONTINUOUS
 62
    7
 10
15350.000332865475
 20
10750.000542011039
 11
16150.000542011039
 21
10750.000542011039
  0
LINE
  8
_0-0_
  6
CONTINUOUS
 62
    7
 10
16150.000542011039
 20
10849.998927760767
 11
15350.000332865475
 21
10849.998927760767
  0
LINE
  8
_0-0_
  6
CONTINUOUS
 62
    7
 10
16150.000542011039
 20
10825.000206199851
 11
15350.000332865475
 21
10825.000206199851
  0
LINE
  8
_0-0_
  6
CONTINUOUS
 62
    7
 10
15350.000332865475
 20
10774.999263571957
 11
16150.000542011039
 21
10774.999263571957
  0
LINE
  8
_0-0_
  6
CONTINUOUS
 62
    7
 10
14349.999852714391
 20
8949.9998527143907
 11
14349.999852714391
 21
9049.9999882171487
  0
LINE
  8
_0-0_
  6
CONTINUOUS
 62
    7
 10
14349.999852714391
 20
9049.9999882171487
 11
14449.999988217149
 21
9049.9999882171487
  0
LINE
  8
_0-0_
  6
CONTINUOUS
 62
    7
 10
14449.999988217149
 20
9049.9999882171487
 11
14449.999988217149
 21
8949.9998527143907
  0
LINE
  8
_0-0_
  6
CONTINUOUS
 62
    7
 10
14449.999988217149
 20
8949.9998527143907
 11
14349.999852714391
 21
8949.9998527143907
  0
LINE
  8
_0-0_
  6
CONTINUOUS
 62
    7
 10
15249.999322486197
 20
8949.9998527143907
 11
15249.999322486197
 21
9049.9999882171487
  0
LINE
  8
_0-0_
  6
CONTINUOUS
 62
    7
 10
15249.999322486197
 20
9049.9999882171487
 11
15350.000332865475
 21
9049.9999882171487
  0
LINE
  8
_0-0_
  6
CONTINUOUS
 62
    7
 10
15350.000332865475
 20
9049.9999882171487
 11
15350.000332865475
 21
8949.9998527143907
  0
LINE
  8
_0-0_
  6
CONTINUOUS
 62
    7
 10
15350.000332865475
 20
8949.9998527143907
 11
15249.999322486197
 21
8949.9998527143907
  0
LINE
  8
_0-0_
  6
CONTINUOUS
 62
    7
 10
14449.999988217149
 20
8949.9998527143907
 11
15249.999322486197
 21
8949.9998527143907
  0
LINE
  8
_0-0_
  6
CONTINUOUS
 62
    7
 10
15249.999322486197
 20
9049.9999882171487
 11
14449.999988217149
 21
9049.9999882171487
  0
LINE
  8
_0-0_
  6
CONTINUOUS
 62
    7
 10
15249.999322486197
 20
9024.9995169032027
 11
14449.999988217149
 21
9024.9995169032027
  0
LINE
  8
_0-0_
  6
CONTINUOUS
 62
    7
 10
14449.999988217149
 20
8975.0003240283368
 11
15249.999322486197
 21
8975.0003240283368
  0
LINE
  8
_0-0_
  6
CONTINUOUS
 62
    7
 10
16150.000542011039
 20
8949.9998527143907
 11
16150.000542011039
 21
9049.9999882171487
  0
LINE
  8
_0-0_
  6
CONTINUOUS
 62
    7
 10
16150.000542011039
 20
9049.9999882171487
 11
16249.998927760767
 21
9049.9999882171487
  0
LINE
  8
_0-0_
  6
CONTINUOUS
 62
    7
 10
16249.998927760767
 20
9049.9999882171487
 11
16249.998927760767
 21
8949.9998527143907
  0
LINE
  8
_0-0_
  6
CONTINUOUS
 62
    7
 10
16249.998927760767
 20
8949.9998527143907
 11
16150.000542011039
 21
8949.9998527143907
  0
LINE
  8
_0-0_
  6
CONTINUOUS
 62
    7
 10
17050.000011782849
 20
8949.9998527143907
 11
17050.000011782849
 21
9049.9999882171487
  0
LINE
  8
_0-0_
  6
CONTINUOUS
 62
    7
 10
17050.000011782849
 20
9049.9999882171487
 11
17150.000147285606
 21
9049.9999882171487
  0
LINE
  8
_0-0_
  6
CONTINUOUS
 62
    7
 10
17150.000147285606
 20
9049.9999882171487
 11
17150.000147285606
 21
8949.9998527143907
  0
LINE
  8
_0-0_
  6
CONTINUOUS
 62
    7
 10
17150.000147285606
 20
8949.9998527143907
 11
17050.000011782849
 21
8949.9998527143907
  0
LINE
  8
_0-0_
  6
CONTINUOUS
 62
    7
 10
16249.998927760767
 20
8949.9998527143907
 11
17050.000011782849
 21
8949.9998527143907
  0
LINE
  8
_0-0_
  6
CONTINUOUS
 62
    7
 10
17050.000011782849
 20
9049.9999882171487
 11
16249.998927760767
 21
9049.9999882171487
  0
LINE
  8
_0-0_
  6
CONTINUOUS
 62
    7
 10
17050.000011782849
 20
9024.9995169032027
 11
16249.998927760767
 21
9024.9995169032027
  0
LINE
  8
_0-0_
  6
CONTINUOUS
 62
    7
 10
16249.998927760767
 20
8975.0003240283368
 11
17050.000011782849
 21
8975.0003240283368
  0
LINE
  8
_0-0_
  6
CONTINUOUS
 62
    7
 10
15250.000197362715
 20
8050.0003829425823
 11
15250.000197362715
 21
8150.0005184453412
  0
LINE
  8
_0-0_
  6
CONTINUOUS
 62
    7
 10
15250.000197362715
 20
8150.0005184453412
 11
15350.000332865475
 21
8150.0005184453412
  0
LINE
  8
_0-0_
  6
CONTINUOUS
 62
    7
 10
15350.000332865475
 20
8150.0005184453412
 11
15350.000332865475
 21
8050.0003829425823
  0
LINE
  8
_0-0_
  6
CONTINUOUS
 62
    7
 10
15350.000332865475
 20
8050.0003829425823
 11
15250.000197362715
 21
8050.0003829425823
  0
LINE
  8
_0-0_
  6
CONTINUOUS
 62
    7
 10
16150.000542011039
 20
8050.0003829425823
 11
16150.000542011039
 21
8150.0005184453412
  0
LINE
  8
_0-0_
  6
CONTINUOUS
 62
    7
 10
16150.000542011039
 20
8150.0005184453412
 11
16250.000677513799
 21
8150.0005184453412
  0
LINE
  8
_0-0_
  6
CONTINUOUS
 62
    7
 10
16250.000677513799
 20
8150.0005184453412
 11
16250.000677513799
 21
8050.0003829425823
  0
LINE
  8
_0-0_
  6
CONTINUOUS
 62
    7
 10
16250.000677513799
 20
8050.0003829425823
 11
16150.000542011039
 21
8050.0003829425823
  0
LINE
  8
_0-0_
  6
CONTINUOUS
 62
    7
 10
15350.000332865475
 20
8050.0003829425823
 11
16150.000542011039
 21
8050.0003829425823
  0
LINE
  8
_0-0_
  6
CONTINUOUS
 62
    7
 10
16150.000542011039
 20
8150.0005184453412
 11
15350.000332865475
 21
8150.0005184453412
  0
LINE
  8
_0-0_
  6
CONTINUOUS
 62
    7
 10
16150.000542011039
 20
8125.0000471313942
 11
15350.000332865475
 21
8125.0000471313942
  0
LINE
  8
_0-0_
  6
CONTINUOUS
 62
    7
 10
15350.000332865475
 20
8075.0008542565301
 11
16150.000542011039
 21
8075.0008542565301
  0
LINE
  8
_0-0_
  6
CONTINUOUS
 62
    7
 10
12550.000038294258
 20
8050.0003829425823
 11
12550.000038294258
 21
8150.0005184453412
  0
LINE
  8
_0-0_
  6
CONTINUOUS
 62
    7
 10
12550.000038294258
 20
8150.0005184453412
 11
12650.000173797018
 21
8150.0005184453412
  0
LINE
  8
_0-0_
  6
CONTINUOUS
 62
    7
 10
12650.000173797018
 20
8150.0005184453412
 11
12650.000173797018
 21
8050.0003829425823
  0
LINE
  8
_0-0_
  6
CONTINUOUS
 62
    7
 10
12650.000173797018
 20
8050.0003829425823
 11
12550.000038294258
 21
8050.0003829425823
  0
LINE
  8
_0-0_
  6
CONTINUOUS
 62
    7
 10
13450.000382942582
 20
8050.0003829425823
 11
13450.000382942582
 21
8150.0005184453412
  0
LINE
  8
_0-0_
  6
CONTINUOUS
 62
    7
 10
13450.000382942582
 20
8150.0005184453412
 11
13550.000518445342
 21
8150.0005184453412
  0
LINE
  8
_0-0_
  6
CONTINUOUS
 62
    7
 10
13550.000518445342
 20
8150.0005184453412
 11
13550.000518445342
 21
8050.0003829425823
  0
LINE
  8
_0-0_
  6
CONTINUOUS
 62
    7
 10
13550.000518445342
 20
8050.0003829425823
 11
13450.000382942582
 21
8050.0003829425823
  0
LINE
  8
_0-0_
  6
CONTINUOUS
 62
    7
 10
12650.000173797018
 20
8050.0003829425823
 11
13450.000382942582
 21
8050.0003829425823
  0
LINE
  8
_0-0_
  6
CONTINUOUS
 62
    7
 10
13450.000382942582
 20
8150.0005184453412
 11
12650.000173797018
 21
8150.0005184453412
  0
LINE
  8
_0-0_
  6
CONTINUOUS
 62
    7
 10
13450.000382942582
 20
8125.0000471313942
 11
12650.000173797018
 21
8125.0000471313942
  0
LINE
  8
_0-0_
  6
CONTINUOUS
 62
    7
 10
12650.000173797018
 20
8075.0008542565301
 11
13450.000382942582
 21
8075.0008542565301
  0
LINE
  8
_0-0_
  6
CONTINUOUS
 62
    7
 10
12550.000038294258
 20
4449.9998792257993
 11
12550.000038294258
 21
4550.00001472856
  0
LINE
  8
_0-0_
  6
CONTINUOUS
 62
    7
 10
12550.000038294258
 20
4550.00001472856
 11
12650.000173797018
 21
4550.00001472856
  0
LINE
  8
_0-0_
  6
CONTINUOUS
 62
    7
 10
12650.000173797018
 20
4550.00001472856
 11
12650.000173797018
 21
4449.9998792257993
  0
LINE
  8
_0-0_
  6
CONTINUOUS
 62
    7
 10
12650.000173797018
 20
4449.9998792257993
 11
12550.000038294258
 21
4449.9998792257993
  0
LINE
  8
_0-0_
  6
CONTINUOUS
 62
    7
 10
13450.000382942582
 20
4449.9998792257993
 11
13450.000382942582
 21
4550.00001472856
  0
LINE
  8
_0-0_
  6
CONTINUOUS
 62
    7
 10
13450.000382942582
 20
4550.00001472856
 11
13550.000518445342
 21
4550.00001472856
  0
LINE
  8
_0-0_
  6
CONTINUOUS
 62
    7
 10
13550.000518445342
 20
4550.00001472856
 11
13550.000518445342
 21
4449.9998792257993
  0
LINE
  8
_0-0_
  6
CONTINUOUS
 62
    7
 10
13550.000518445342
 20
4449.9998792257993
 11
13450.000382942582
 21
4449.9998792257993
  0
LINE
  8
_0-0_
  6
CONTINUOUS
 62
    7
 10
12650.000173797018
 20
4449.9998792257993
 11
13450.000382942582
 21
4449.9998792257993
  0
LINE
  8
_0-0_
  6
CONTINUOUS
 62
    7
 10
13450.000382942582
 20
4550.00001472856
 11
12650.000173797018
 21
4550.00001472856
  0
LINE
  8
_0-0_
  6
CONTINUOUS
 62
    7
 10
13450.000382942582
 20
4524.9995434146131
 11
12650.000173797018
 21
4524.9995434146131
  0
LINE
  8
_0-0_
  6
CONTINUOUS
 62
    7
 10
12650.000173797018
 20
4475.000350539749
 11
13450.000382942582
 21
4475.000350539749
  0
LINE
  8
_0-0_
  6
CONTINUOUS
 62
    7
 10
15250.000197362715
 20
4449.9998792257993
 11
15250.000197362715
 21
4550.00001472856
  0
LINE
  8
_0-0_
  6
CONTINUOUS
 62
    7
 10
15250.000197362715
 20
4550.00001472856
 11
15350.000332865475
 21
4550.00001472856
  0
LINE
  8
_0-0_
  6
CONTINUOUS
 62
    7
 10
15350.000332865475
 20
4550.00001472856
 11
15350.000332865475
 21
4449.9998792257993
  0
LINE
  8
_0-0_
  6
CONTINUOUS
 62
    7
 10
15350.000332865475
 20
4449.9998792257993
 11
15250.000197362715
 21
4449.9998792257993
  0
LINE
  8
_0-0_
  6
CONTINUOUS
 62
    7
 10
16150.000542011039
 20
4449.9998792257993
 11
16150.000542011039
 21
4550.00001472856
  0
LINE
  8
_0-0_
  6
CONTINUOUS
 62
    7
 10
16150.000542011039
 20
4550.00001472856
 11
16250.000677513799
 21
4550.00001472856
  0
LINE
  8
_0-0_
  6
CONTINUOUS
 62
    7
 10
16250.000677513799
 20
4550.00001472856
 11
16250.000677513799
 21
4449.9998792257993
  0
LINE
  8
_0-0_
  6
CONTINUOUS
 62
    7
 10
16250.000677513799
 20
4449.9998792257993
 11
16150.000542011039
 21
4449.9998792257993
  0
LINE
  8
_0-0_
  6
CONTINUOUS
 62
    7
 10
15350.000332865475
 20
4449.9998792257993
 11
16150.000542011039
 21
4449.9998792257993
  0
LINE
  8
_0-0_
  6
CONTINUOUS
 62
    7
 10
16150.000542011039
 20
4550.00001472856
 11
15350.000332865475
 21
4550.00001472856
  0
LINE
  8
_0-0_
  6
CONTINUOUS
 62
    7
 10
16150.000542011039
 20
4524.9995434146131
 11
15350.000332865475
 21
4524.9995434146131
  0
LINE
  8
_0-0_
  6
CONTINUOUS
 62
    7
 10
15350.000332865475
 20
4475.000350539749
 11
16150.000542011039
 21
4475.000350539749
  0
LINE
  8
_0-0_
  6
CONTINUOUS
 62
    7
 10
16150.000542011039
 20
4449.9998792257993
 11
16150.000542011039
 21
4550.00001472856
  0
LINE
  8
_0-0_
  6
CONTINUOUS
 62
    7
 10
16150.000542011039
 20
4550.00001472856
 11
16249.998927760767
 21
4550.00001472856
  0
LINE
  8
_0-0_
  6
CONTINUOUS
 62
    7
 10
16249.998927760767
 20
4550.00001472856
 11
16249.998927760767
 21
4449.9998792257993
  0
LINE
  8
_0-0_
  6
CONTINUOUS
 62
    7
 10
16249.998927760767
 20
4449.9998792257993
 11
16150.000542011039
 21
4449.9998792257993
  0
LINE
  8
_0-0_
  6
CONTINUOUS
 62
    7
 10
17050.000011782849
 20
4449.9998792257993
 11
17050.000011782849
 21
4550.00001472856
  0
LINE
  8
_0-0_
  6
CONTINUOUS
 62
    7
 10
17050.000011782849
 20
4550.00001472856
 11
17150.000147285606
 21
4550.00001472856
  0
LINE
  8
_0-0_
  6
CONTINUOUS
 62
    7
 10
17150.000147285606
 20
4550.00001472856
 11
17150.000147285606
 21
4449.9998792257993
  0
LINE
  8
_0-0_
  6
CONTINUOUS
 62
    7
 10
17150.000147285606
 20
4449.9998792257993
 11
17050.000011782849
 21
4449.9998792257993
  0
LINE
  8
_0-0_
  6
CONTINUOUS
 62
    7
 10
16249.998927760767
 20
4449.9998792257993
 11
17050.000011782849
 21
4449.9998792257993
  0
LINE
  8
_0-0_
  6
CONTINUOUS
 62
    7
 10
17050.000011782849
 20
4550.00001472856
 11
16249.998927760767
 21
4550.00001472856
  0
LINE
  8
_0-0_
  6
CONTINUOUS
 62
    7
 10
17050.000011782849
 20
4524.9995434146131
 11
16249.998927760767
 21
4524.9995434146131
  0
LINE
  8
_0-0_
  6
CONTINUOUS
 62
    7
 10
16249.998927760767
 20
4475.000350539749
 11
17050.000011782849
 21
4475.000350539749
  0
LINE
  8
_0-0_
  6
CONTINUOUS
 62
    2
 10
11700.00063627383
 20
9499.9997231030538
 11
11700.00063627383
 21
10299.999057372102
  0
LINE
  8
_0-0_
  6
CONTINUOUS
 62
    7
 10
11750.000704025209
 20
8949.9998527143907
 11
11650.00056852245
 21
8949.9998527143907
  0
LINE
  8
_0-0_
  6
CONTINUOUS
 62
    7
 10
11650.00056852245
 20
8949.9998527143907
 11
11650.00056852245
 21
9049.9999882171487
  0
LINE
  8
_0-0_
  6
CONTINUOUS
 62
    7
 10
11750.000704025209
 20
9049.9999882171487
 11
11750.000704025209
 21
8949.9998527143907
  0
LINE
  8
_0-0_
  6
CONTINUOUS
 62
    2
 10
11700.00063627383
 20
9049.9999882171487
 11
11700.00063627383
 21
9450.0005302281897
  0
LINE
  8
_0-0_
  6
CONTINUOUS
 62
    7
 10
11650.00056852245
 20
9049.9999882171487
 11
11750.000704025209
 21
9049.9999882171487
  0
LINE
  8
_0-0_
  6
CONTINUOUS
 62
    2
 10
11700.00063627383
 20
9499.9988482265398
 11
11700.00063627383
 21
10299.999057372102
  0
LINE
  8
_0-0_
  6
CONTINUOUS
 62
    4
 10
11650.00056852245
 20
10299.999057372102
 11
10900.000427128265
 21
10299.999057372102
  0
LINE
  8
_0-0_
  6
CONTINUOUS
 62
    7
 10
11750.000704025209
 20
10750.000542011039
 11
11650.00056852245
 21
10750.000542011039
  0
LINE
  8
_0-0_
  6
CONTINUOUS
 62
    7
 10
11650.00056852245
 20
10750.000542011039
 11
11650.00056852245
 21
10850.000677513799
  0
LINE
  8
_0-0_
  6
CONTINUOUS
 62
    7
 10
11750.000704025209
 20
10850.000677513799
 11
11750.000704025209
 21
10750.000542011039
  0
LINE
  8
_0-0_
  6
CONTINUOUS
 62
    7
 10
11650.00056852245
 20
9450.0005302281897
 11
11750.000704025209
 21
9450.0005302281897
  0
LINE
  8
_0-0_
  6
CONTINUOUS
 62
    7
 10
11750.000704025209
 20
9450.0005302281897
 11
11750.000704025209
 21
9499.9997231030538
  0
LINE
  8
_0-0_
  6
CONTINUOUS
 62
    7
 10
11750.000704025209
 20
9499.9997231030538
 11
11650.00056852245
 21
9499.9997231030538
  0
LINE
  8
_0-0_
  6
CONTINUOUS
 62
    7
 10
11650.00056852245
 20
9499.9997231030538
 11
11650.00056852245
 21
9450.0005302281897
  0
LINE
  8
_0-0_
  6
CONTINUOUS
 62
    4
 10
11650.00056852245
 20
9049.9999882171487
 11
11650.00056852245
 21
10750.000542011039
  0
LINE
  8
_0-0_
  6
CONTINUOUS
 62
    4
 10
11750.000704025209
 20
9049.9999882171487
 11
11750.000704025209
 21
10750.000542011039
  0
LINE
  8
_0-0_
  6
CONTINUOUS
 62
    7
 10
11650.00056852245
 20
10299.999057372102
 11
11750.000704025209
 21
10299.999057372102
  0
LINE
  8
_0-0_
  6
CONTINUOUS
 62
    7
 10
11750.000704025209
 20
10299.999057372102
 11
11750.000704025209
 21
10350
  0
LINE
  8
_0-0_
  6
CONTINUOUS
 62
    7
 10
11750.000704025209
 20
10350
 11
11650.00056852245
 21
10350
  0
LINE
  8
_0-0_
  6
CONTINUOUS
 62
    7
 10
11650.00056852245
 20
10350
 11
11650.00056852245
 21
10299.999057372102
  0
LINE
  8
_0-0_
  6
CONTINUOUS
 62
    2
 10
11700.00063627383
 20
9049.9999882171487
 11
11700.00063627383
 21
9450.0005302281897
  0
LINE
  8
_0-0_
  6
CONTINUOUS
 62
    2
 10
11700.00063627383
 20
10350
 11
11700.00063627383
 21
10750.000542011039
  0
LINE
  8
_0-0_
  6
CONTINUOUS
 62
    7
 10
18950.000836582258
 20
5350.0002238741245
 11
18850.000701079498
 21
5350.0002238741245
  0
LINE
  8
_0-0_
  6
CONTINUOUS
 62
    7
 10
18850.000701079498
 20
5350.0002238741245
 11
18850.000701079498
 21
5449.9994845003685
  0
LINE
  8
_0-0_
  6
CONTINUOUS
 62
    7
 10
18850.000701079498
 20
5449.9994845003685
 11
18950.000836582258
 21
5449.9994845003685
  0
LINE
  8
_0-0_
  6
CONTINUOUS
 62
    7
 10
18950.000836582258
 20
5449.9994845003685
 11
18950.000836582258
 21
5350.0002238741245
  0
LINE
  8
_0-0_
  6
CONTINUOUS
 62
    7
 10
18950.000836582258
 20
7150.0000382942571
 11
18850.000701079498
 21
7150.0000382942571
  0
LINE
  8
_0-0_
  6
CONTINUOUS
 62
    7
 10
18850.000701079498
 20
7150.0000382942571
 11
18850.000701079498
 21
7250.0001737970179
  0
LINE
  8
_0-0_
  6
CONTINUOUS
 62
    7
 10
18850.000701079498
 20
7250.0001737970179
 11
18950.000836582258
 21
7250.0001737970179
  0
LINE
  8
_0-0_
  6
CONTINUOUS
 62
    7
 10
18950.000836582258
 20
7250.0001737970179
 11
18950.000836582258
 21
7150.0000382942571
  0
LINE
  8
_0-0_
  6
CONTINUOUS
 62
    4
 10
18850.000701079498
 20
5449.9994845003685
 11
18850.000701079498
 21
7150.0000382942571
  0
LINE
  8
_0-0_
  6
CONTINUOUS
 62
    4
 10
18950.000836582258
 20
5449.9994845003685
 11
18950.000836582258
 21
7150.0000382942571
  0
LINE
  8
_0-0_
  6
CONTINUOUS
 62
    2
 10
18875.001172393444
 20
5449.9994845003685
 11
18875.001172393444
 21
6330.0001519987472
  0
LINE
  8
_0-0_
  6
CONTINUOUS
 62
    2
 10
18925.000365268308
 20
6270.0002456723951
 11
18925.000365268308
 21
7150.0000382942571
  0
LINE
  8
_0-0_
  6
CONTINUOUS
 62
    7
 10
18799.999758451599
 20
6299.9997613973137
 11
19000.000029457122
 21
6299.9997613973137
  0
LINE
  8
_0-0_
  6
CONTINUOUS
 62
    7
 10
10750.000223874125
 20
4449.9998792257993
 11
10750.000223874125
 21
4549.9991398520451
  0
LINE
  8
_0-0_
  6
CONTINUOUS
 62
    7
 10
10750.000223874125
 20
4549.9991398520451
 11
10849.999484500368
 21
4549.9991398520451
  0
LINE
  8
_0-0_
  6
CONTINUOUS
 62
    7
 10
10849.999484500368
 20
4549.9991398520451
 11
10849.999484500368
 21
4449.9998792257993
  0
LINE
  8
_0-0_
  6
CONTINUOUS
 62
    7
 10
10849.999484500368
 20
4449.9998792257993
 11
10750.000223874125
 21
4449.9998792257993
  0
LINE
  8
_0-0_
  6
CONTINUOUS
 62
    7
 10
12550.000038294258
 20
4449.9998792257993
 11
12550.000038294258
 21
4549.9991398520451
  0
LINE
  8
_0-0_
  6
CONTINUOUS
 62
    7
 10
12550.000038294258
 20
4549.9991398520451
 11
12650.000173797018
 21
4549.9991398520451
  0
LINE
  8
_0-0_
  6
CONTINUOUS
 62
    7
 10
12650.000173797018
 20
4549.9991398520451
 11
12650.000173797018
 21
4449.9998792257993
  0
LINE
  8
_0-0_
  6
CONTINUOUS
 62
    7
 10
12650.000173797018
 20
4449.9998792257993
 11
12550.000038294258
 21
4449.9998792257993
  0
LINE
  8
_0-0_
  6
CONTINUOUS
 62
    4
 10
10849.999484500368
 20
4549.9991398520451
 11
12550.000038294258
 21
4549.9991398520451
  0
LINE
  8
_0-0_
  6
CONTINUOUS
 62
    4
 10
10849.999484500368
 20
4449.9998792257993
 11
12550.000038294258
 21
4449.9998792257993
  0
LINE
  8
_0-0_
  6
CONTINUOUS
 62
    2
 10
10849.999484500368
 20
4524.9995434146131
 11
11730.000151998747
 21
4524.9995434146131
  0
LINE
  8
_0-0_
  6
CONTINUOUS
 62
    2
 10
11670.000245672396
 20
4474.9994756632323
 11
12550.000038294258
 21
4474.9994756632323
  0
LINE
  8
_0-0_
  6
CONTINUOUS
 62
    7
 10
11699.999761397314
 20
4600.0000824799399
 11
11699.999761397314
 21
4399.9998114744203
  0
LINE
  8
_0-0_
  6
CONTINUOUS
 62
    7
 10
13450.000382942582
 20
4449.9998792257993
 11
13450.000382942582
 21
4549.9991398520451
  0
LINE
  8
_0-0_
  6
CONTINUOUS
 62
    7
 10
13450.000382942582
 20
4549.9991398520451
 11
13549.999643568828
 21
4549.9991398520451
  0
LINE
  8
_0-0_
  6
CONTINUOUS
 62
    7
 10
13549.999643568828
 20
4549.9991398520451
 11
13549.999643568828
 21
4449.9998792257993
  0
LINE
  8
_0-0_
  6
CONTINUOUS
 62
    7
 10
13549.999643568828
 20
4449.9998792257993
 11
13450.000382942582
 21
4449.9998792257993
  0
LINE
  8
_0-0_
  6
CONTINUOUS
 62
    7
 10
15250.000197362715
 20
4449.9998792257993
 11
15250.000197362715
 21
4549.9991398520451
  0
LINE
  8
_0-0_
  6
CONTINUOUS
 62
    7
 10
15250.000197362715
 20
4549.9991398520451
 11
15350.000332865475
 21
4549.9991398520451
  0
LINE
  8
_0-0_
  6
CONTINUOUS
 62
    7
 10
15350.000332865475
 20
4549.9991398520451
 11
15350.000332865475
 21
4449.9998792257993
  0
LINE
  8
_0-0_
  6
CONTINUOUS
 62
    7
 10
15350.000332865475
 20
4449.9998792257993
 11
15250.000197362715
 21
4449.9998792257993
  0
LINE
  8
_0-0_
  6
CONTINUOUS
 62
    4
 10
13549.999643568828
 20
4549.9991398520451
 11
15250.000197362715
 21
4549.9991398520451
  0
LINE
  8
_0-0_
  6
CONTINUOUS
 62
    4
 10
13549.999643568828
 20
4449.9998792257993
 11
15250.000197362715
 21
4449.9998792257993
  0
LINE
  8
_0-0_
  6
CONTINUOUS
 62
    2
 10
13549.999643568828
 20
4524.9995434146131
 11
14430.000311067204
 21
4524.9995434146131
  0
LINE
  8
_0-0_
  6
CONTINUOUS
 62
    2
 10
14370.000404740853
 20
4474.9994756632323
 11
15250.000197362715
 21
4474.9994756632323
  0
LINE
  8
_0-0_
  6
CONTINUOUS
 62
    7
 10
14399.999920465771
 20
4600.0000824799399
 11
14399.999920465771
 21
4399.9998114744203
  0
LINE
  8
_0-0_
  6
CONTINUOUS
 62
    7
 10
17050.000011782849
 20
4449.9998792257993
 11
17050.000011782849
 21
4549.9991398520451
  0
LINE
  8
_0-0_
  6
CONTINUOUS
 62
    7
 10
17050.000011782849
 20
4549.9991398520451
 11
17150.000147285606
 21
4549.9991398520451
  0
LINE
  8
_0-0_
  6
CONTINUOUS
 62
    7
 10
17150.000147285606
 20
4549.9991398520451
 11
17150.000147285606
 21
4449.9998792257993
  0
LINE
  8
_0-0_
  6
CONTINUOUS
 62
    7
 10
17150.000147285606
 20
4449.9998792257993
 11
17050.000011782849
 21
4449.9998792257993
  0
LINE
  8
_0-0_
  6
CONTINUOUS
 62
    7
 10
18850.000701079498
 20
4449.9998792257993
 11
18850.000701079498
 21
4549.9991398520451
  0
LINE
  8
_0-0_
  6
CONTINUOUS
 62
    7
 10
18850.000701079498
 20
4549.9991398520451
 11
18950.000836582258
 21
4549.9991398520451
  0
LINE
  8
_0-0_
  6
CONTINUOUS
 62
    7
 10
18950.000836582258
 20
4549.9991398520451
 11
18950.000836582258
 21
4449.9998792257993
  0
LINE
  8
_0-0_
  6
CONTINUOUS
 62
    7
 10
18950.000836582258
 20
4449.9998792257993
 11
18850.000701079498
 21
4449.9998792257993
  0
LINE
  8
_0-0_
  6
CONTINUOUS
 62
    4
 10
17150.000147285606
 20
4549.9991398520451
 11
18850.000701079498
 21
4549.9991398520451
  0
LINE
  8
_0-0_
  6
CONTINUOUS
 62
    4
 10
17150.000147285606
 20
4449.9998792257993
 11
18850.000701079498
 21
4449.9998792257993
  0
LINE
  8
_0-0_
  6
CONTINUOUS
 62
    2
 10
17150.000147285606
 20
4524.9995434146131
 11
18029.99993990747
 21
4524.9995434146131
  0
LINE
  8
_0-0_
  6
CONTINUOUS
 62
    2
 10
17970.00090845763
 20
4474.9994756632323
 11
18850.000701079498
 21
4474.9994756632323
  0
LINE
  8
_0-0_
  6
CONTINUOUS
 62
    7
 10
18000.000424182552
 20
4600.0000824799399
 11
18000.000424182552
 21
4399.9998114744203
  0
LINE
  8
_0-0_
  6
CONTINUOUS
 62
    7
 10
17050.000011782849
 20
8050.0003829425823
 11
17050.000011782849
 21
8149.9996435688263
  0
LINE
  8
_0-0_
  6
CONTINUOUS
 62
    7
 10
17050.000011782849
 20
8149.9996435688263
 11
17150.000147285606
 21
8149.9996435688263
  0
LINE
  8
_0-0_
  6
CONTINUOUS
 62
    7
 10
17150.000147285606
 20
8149.9996435688263
 11
17150.000147285606
 21
8050.0003829425823
  0
LINE
  8
_0-0_
  6
CONTINUOUS
 62
    7
 10
17150.000147285606
 20
8050.0003829425823
 11
17050.000011782849
 21
8050.0003829425823
  0
LINE
  8
_0-0_
  6
CONTINUOUS
 62
    7
 10
18850.000701079498
 20
8050.0003829425823
 11
18850.000701079498
 21
8149.9996435688263
  0
LINE
  8
_0-0_
  6
CONTINUOUS
 62
    7
 10
18850.000701079498
 20
8149.9996435688263
 11
18950.000836582258
 21
8149.9996435688263
  0
LINE
  8
_0-0_
  6
CONTINUOUS
 62
    7
 10
18950.000836582258
 20
8149.9996435688263
 11
18950.000836582258
 21
8050.0003829425823
  0
LINE
  8
_0-0_
  6
CONTINUOUS
 62
    7
 10
18950.000836582258
 20
8050.0003829425823
 11
18850.000701079498
 21
8050.0003829425823
  0
LINE
  8
_0-0_
  6
CONTINUOUS
 62
    4
 10
17150.000147285606
 20
8149.9996435688263
 11
18850.000701079498
 21
8149.9996435688263
  0
LINE
  8
_0-0_
  6
CONTINUOUS
 62
    4
 10
17150.000147285606
 20
8050.0003829425823
 11
18850.000701079498
 21
8050.0003829425823
  0
LINE
  8
_0-0_
  6
CONTINUOUS
 62
    2
 10
17150.000147285606
 20
8125.0000471313942
 11
18029.99993990747
 21
8125.0000471313942
  0
LINE
  8
_0-0_
  6
CONTINUOUS
 62
    2
 10
17970.00090845763
 20
8074.9999793800143
 11
18850.000701079498
 21
8074.9999793800143
  0
LINE
  8
_0-0_
  6
CONTINUOUS
 62
    7
 10
18000.000424182552
 20
8200.000586196722
 11
18000.000424182552
 21
8000.0003151912024
  0
LINE
  8
_0-0_
  6
CONTINUOUS
 62
    7
 10
13450.000382942582
 20
8050.0003829425823
 11
13450.000382942582
 21
8149.9996435688263
  0
LINE
  8
_0-0_
  6
CONTINUOUS
 62
    7
 10
13450.000382942582
 20
8149.9996435688263
 11
13549.999643568828
 21
8149.9996435688263
  0
LINE
  8
_0-0_
  6
CONTINUOUS
 62
    7
 10
13549.999643568828
 20
8149.9996435688263
 11
13549.999643568828
 21
8050.0003829425823
  0
LINE
  8
_0-0_
  6
CONTINUOUS
 62
    7
 10
13549.999643568828
 20
8050.0003829425823
 11
13450.000382942582
 21
8050.0003829425823
  0
LINE
  8
_0-0_
  6
CONTINUOUS
 62
    7
 10
15250.000197362715
 20
8050.0003829425823
 11
15250.000197362715
 21
8149.9996435688263
  0
LINE
  8
_0-0_
  6
CONTINUOUS
 62
    7
 10
15250.000197362715
 20
8149.9996435688263
 11
15350.000332865475
 21
8149.9996435688263
  0
LINE
  8
_0-0_
  6
CONTINUOUS
 62
    7
 10
15350.000332865475
 20
8149.9996435688263
 11
15350.000332865475
 21
8050.0003829425823
  0
LINE
  8
_0-0_
  6
CONTINUOUS
 62
    7
 10
15350.000332865475
 20
8050.0003829425823
 11
15250.000197362715
 21
8050.0003829425823
  0
LINE
  8
_0-0_
  6
CONTINUOUS
 62
    4
 10
13549.999643568828
 20
8149.9996435688263
 11
15250.000197362715
 21
8149.9996435688263
  0
LINE
  8
_0-0_
  6
CONTINUOUS
 62
    4
 10
13549.999643568828
 20
8050.0003829425823
 11
15250.000197362715
 21
8050.0003829425823
  0
LINE
  8
_0-0_
  6
CONTINUOUS
 62
    2
 10
13549.999643568828
 20
8125.0000471313942
 11
14430.000311067204
 21
8125.0000471313942
  0
LINE
  8
_0-0_
  6
CONTINUOUS
 62
    2
 10
14370.000404740853
 20
8074.9999793800143
 11
15250.000197362715
 21
8074.9999793800143
  0
LINE
  8
_0-0_
  6
CONTINUOUS
 62
    7
 10
14399.999920465771
 20
8200.000586196722
 11
14399.999920465771
 21
8000.0003151912024
  0
LINE
  8
_0-0_
  6
CONTINUOUS
 62
    7
 10
12650.000173797018
 20
4450.0007541023169
 11
12550.000038294258
 21
4450.0007541023169
  0
LINE
  8
_0-0_
  6
CONTINUOUS
 62
    7
 10
12550.000038294258
 20
4450.0007541023169
 11
12550.000038294258
 21
4550.00001472856
  0
LINE
  8
_0-0_
  6
CONTINUOUS
 62
    7
 10
12550.000038294258
 20
4550.00001472856
 11
12650.000173797018
 21
4550.00001472856
  0
LINE
  8
_0-0_
  6
CONTINUOUS
 62
    7
 10
12650.000173797018
 20
4550.00001472856
 11
12650.000173797018
 21
4450.0007541023169
  0
LINE
  8
_0-0_
  6
CONTINUOUS
 62
    7
 10
12650.000173797018
 20
8050.002132695613
 11
12550.000038294258
 21
8050.002132695613
  0
LINE
  8
_0-0_
  6
CONTINUOUS
 62
    7
 10
12550.000038294258
 20
8050.002132695613
 11
12550.000038294258
 21
8150.0022681983737
  0
LINE
  8
_0-0_
  6
CONTINUOUS
 62
    7
 10
12550.000038294258
 20
8150.0022681983737
 11
12650.000173797018
 21
8150.0022681983737
  0
LINE
  8
_0-0_
  6
CONTINUOUS
 62
    7
 10
12650.000173797018
 20
8150.0022681983737
 11
12650.000173797018
 21
8050.002132695613
  0
LINE
  8
_0-0_
  6
CONTINUOUS
 62
    4
 10
12550.000038294258
 20
4550.00001472856
 11
12550.000038294258
 21
8050.002132695613
  0
LINE
  8
_0-0_
  6
CONTINUOUS
 62
    4
 10
12650.000173797018
 20
8050.002132695613
 11
12650.000173797018
 21
4550.00001472856
  0
LINE
  8
_0-0_
  6
CONTINUOUS
 62
    2
 10
12624.99970248307
 20
8050.002132695613
 11
12624.99970248307
 21
7170.0014651972351
  0
LINE
  8
_0-0_
  6
CONTINUOUS
 62
    2
 10
12624.99970248307
 20
5430.0015571034546
 11
12624.99970248307
 21
4550.00001472856
  0
LINE
  8
_0-0_
  6
CONTINUOUS
 62
    7
 10
12499.999970542878
 20
7200.0018557986696
 11
12700.000241548398
 21
7200.0018557986696
  0
LINE
  8
_0-0_
  6
CONTINUOUS
 62
    7
 10
12499.999970542878
 20
6300.0006362738286
 11
12700.000241548398
 21
6300.0006362738286
  0
LINE
  8
_0-0_
  6
CONTINUOUS
 62
    7
 10
12499.999970542878
 20
5400.0002916255044
 11
12700.000241548398
 21
5400.0002916255044
  0
LINE
  8
_0-0_
  6
CONTINUOUS
 62
    2
 10
12575.000509608204
 20
5370.0007759005857
 11
12575.000509608204
 21
6300.0006362738286
  0
LINE
  8
_0-0_
  6
CONTINUOUS
 62
    2
 10
12575.000509608204
 20
6300.0006362738286
 11
12575.000509608204
 21
7230.0013715235873
  0
LINE
  8
_0-0_
  6
CONTINUOUS
 62
    7
 10
18849.998951326463
 20
8949.9998527143907
 11
18950.000836582258
 21
8949.9998527143907
  0
LINE
  8
_0-0_
  6
CONTINUOUS
 62
    7
 10
18950.000836582258
 20
8949.9998527143907
 11
18950.000836582258
 21
9049.9999882171487
  0
LINE
  8
_0-0_
  6
CONTINUOUS
 62
    7
 10
18950.000836582258
 20
9049.9999882171487
 11
18849.998951326463
 21
9049.9999882171487
  0
LINE
  8
_0-0_
  6
CONTINUOUS
 62
    7
 10
18849.998951326463
 20
9049.9999882171487
 11
18849.998951326463
 21
8949.9998527143907
  0
LINE
  8
_0-0_
  6
CONTINUOUS
 62
    7
 10
18849.998951326463
 20
9850.0010722392326
 11
18949.999086829226
 21
9850.0010722392326
  0
LINE
  8
_0-0_
  6
CONTINUOUS
 62
    7
 10
18949.999086829226
 20
9850.0010722392326
 11
18949.999086829226
 21
9949.9994579889608
  0
LINE
  8
_0-0_
  6
CONTINUOUS
 62
    7
 10
18949.999086829226
 20
9949.9994579889608
 11
18849.998951326463
 21
9949.9994579889608
  0
LINE
  8
_0-0_
  6
CONTINUOUS
 62
    7
 10
18849.998951326463
 20
9949.9994579889608
 11
18849.998951326463
 21
9850.0010722392326
  0
LINE
  8
_0-0_
  6
CONTINUOUS
 62
    4
 10
18849.998951326463
 20
9049.9999882171487
 11
18849.998951326463
 21
9850.0010722392326
  0
LINE
  8
_0-0_
  6
CONTINUOUS
 62
    4
 10
18950.000836582258
 20
9049.9999882171487
 11
18949.999086829226
 21
9850.0010722392326
  0
LINE
  8
_0-0_
  6
CONTINUOUS
 62
    7
 10
18799.999758451599
 20
9450.0005302281897
 11
19000.000029457122
 21
9450.0005302281897
  0
LINE
  8
_0-0_
  6
CONTINUOUS
 62
    2
 10
18875.001172393444
 20
9049.9999882171487
 11
18874.999422640412
 21
9480.0009208296251
  0
LINE
  8
_0-0_
  6
CONTINUOUS
 62
    2
 10
18924.99861551528
 20
9420.0001396267562
 11
18924.99861551528
 21
9850.0010722392326
  0
LINE
  8
_0-0_
  6
CONTINUOUS
 62
    7
 10
16150.000542011039
 20
10849.998927760767
 11
16150.000542011039
 21
10750.000542011039
  0
LINE
  8
_0-0_
  6
CONTINUOUS
 62
    7
 10
16150.000542011039
 20
10750.000542011039
 11
16249.998927760767
 21
10750.000542011039
  0
LINE
  8
_0-0_
  6
CONTINUOUS
 62
    7
 10
16249.998927760767
 20
10750.000542011039
 11
16249.998927760767
 21
10849.998927760767
  0
LINE
  8
_0-0_
  6
CONTINUOUS
 62
    7
 10
16249.998927760767
 20
10849.998927760767
 11
16150.000542011039
 21
10849.998927760767
  0
LINE
  8
_0-0_
  6
CONTINUOUS
 62
    7
 10
17050.000011782849
 20
10849.998927760767
 11
17050.000011782849
 21
10750.000542011039
  0
LINE
  8
_0-0_
  6
CONTINUOUS
 62
    7
 10
17050.000011782849
 20
10750.000542011039
 11
17149.998397532578
 21
10750.000542011039
  0
LINE
  8
_0-0_
  6
CONTINUOUS
 62
    7
 10
17149.998397532578
 20
10750.000542011039
 11
17149.998397532578
 21
10849.998927760767
  0
LINE
  8
_0-0_
  6
CONTINUOUS
 62
    7
 10
17149.998397532578
 20
10849.998927760767
 11
17050.000011782849
 21
10849.998927760767
  0
LINE
  8
_0-0_
  6
CONTINUOUS
 62
    4
 10
16249.998927760767
 20
10849.998927760767
 11
17050.000011782849
 21
10849.998927760767
  0
LINE
  8
_0-0_
  6
CONTINUOUS
 62
    4
 10
16249.998927760767
 20
10750.000542011039
 11
17050.000011782849
 21
10750.000542011039
  0
LINE
  8
_0-0_
  6
CONTINUOUS
 62
    7
 10
16649.999469771807
 20
10899.999870388663
 11
16649.999469771807
 21
10699.999599383145
  0
LINE
  8
_0-0_
  6
CONTINUOUS
 62
    2
 10
16249.998927760767
 20
10824.998456446821
 11
16680.000735249756
 21
10824.998456446821
  0
LINE
  8
_0-0_
  6
CONTINUOUS
 62
    2
 10
16619.999954046889
 20
10775.001013324987
 11
17050.000011782849
 21
10775.001013324987
  0
LINE
  8
_0-0_
  6
CONTINUOUS
 62
    7
 10
16150.000542011039
 20
8050.0003829425823
 11
16150.000542011039
 21
8150.0005184453412
  0
LINE
  8
_0-0_
  6
CONTINUOUS
 62
    7
 10
16150.000542011039
 20
8150.0005184453412
 11
16249.998927760767
 21
8150.0005184453412
  0
LINE
  8
_0-0_
  6
CONTINUOUS
 62
    7
 10
16249.998927760767
 20
8150.0005184453412
 11
16249.998927760767
 21
8050.0003829425823
  0
LINE
  8
_0-0_
  6
CONTINUOUS
 62
    7
 10
16249.998927760767
 20
8050.0003829425823
 11
16150.000542011039
 21
8050.0003829425823
  0
LINE
  8
_0-0_
  6
CONTINUOUS
 62
    7
 10
17050.000011782849
 20
8050.0003829425823
 11
17050.000011782849
 21
8150.0005184453412
  0
LINE
  8
_0-0_
  6
CONTINUOUS
 62
    7
 10
17050.000011782849
 20
8150.0005184453412
 11
17150.000147285606
 21
8150.0005184453412
  0
LINE
  8
_0-0_
  6
CONTINUOUS
 62
    7
 10
17150.000147285606
 20
8150.0005184453412
 11
17150.000147285606
 21
8050.0003829425823
  0
LINE
  8
_0-0_
  6
CONTINUOUS
 62
    7
 10
17150.000147285606
 20
8050.0003829425823
 11
17050.000011782849
 21
8050.0003829425823
  0
LINE
  8
_0-0_
  6
CONTINUOUS
 62
    4
 10
16249.998927760767
 20
8150.0005184453412
 11
17050.000011782849
 21
8150.0005184453412
  0
LINE
  8
_0-0_
  6
CONTINUOUS
 62
    4
 10
16249.998927760767
 20
8050.0003829425823
 11
17050.000011782849
 21
8050.0003829425823
  0
LINE
  8
_0-0_
  6
CONTINUOUS
 62
    2
 10
16249.998927760767
 20
8100.0004506939622
 11
17050.000011782849
 21
8100.0004506939622
  0
LINE
  8
_0-0_
  6
CONTINUOUS
 62
    4
 10
17050.000011782849
 20
8150.0005184453412
 11
17050.000011782849
 21
8900.0006598395266
  0
LINE
  8
_0-0_
  6
CONTINUOUS
 62
    7
 10
15250.000197362715
 20
8949.9998527143907
 11
15250.000197362715
 21
9049.9999882171487
  0
LINE
  8
_0-0_
  6
CONTINUOUS
 62
    7
 10
15250.000197362715
 20
9049.9999882171487
 11
15350.000332865475
 21
9049.9999882171487
  0
LINE
  8
_0-0_
  6
CONTINUOUS
 62
    7
 10
15350.000332865475
 20
9049.9999882171487
 11
15350.000332865475
 21
8949.9998527143907
  0
LINE
  8
_0-0_
  6
CONTINUOUS
 62
    7
 10
15350.000332865475
 20
8949.9998527143907
 11
15250.000197362715
 21
8949.9998527143907
  0
LINE
  8
_0-0_
  6
CONTINUOUS
 62
    7
 10
16150.000542011039
 20
8949.9998527143907
 11
16150.000542011039
 21
9049.9999882171487
  0
LINE
  8
_0-0_
  6
CONTINUOUS
 62
    7
 10
16150.000542011039
 20
9049.9999882171487
 11
16250.000677513799
 21
9049.9999882171487
  0
LINE
  8
_0-0_
  6
CONTINUOUS
 62
    7
 10
16250.000677513799
 20
9049.9999882171487
 11
16250.000677513799
 21
8949.9998527143907
  0
LINE
  8
_0-0_
  6
CONTINUOUS
 62
    7
 10
16250.000677513799
 20
8949.9998527143907
 11
16150.000542011039
 21
8949.9998527143907
  0
LINE
  8
_0-0_
  6
CONTINUOUS
 62
    4
 10
15350.000332865475
 20
9049.9999882171487
 11
16150.000542011039
 21
9049.9999882171487
  0
LINE
  8
_0-0_
  6
CONTINUOUS
 62
    4
 10
15350.000332865475
 20
8949.9998527143907
 11
16150.000542011039
 21
8949.9998527143907
  0
LINE
  8
_0-0_
  6
CONTINUOUS
 62
    2
 10
15350.000332865475
 20
8999.9999204657706
 11
16150.000542011039
 21
8999.9999204657706
  0
LINE
  8
_0-0_
  6
CONTINUOUS
 62
    4
 10
16150.000542011039
 20
9049.9999882171487
 11
16150.000542011039
 21
9800.0001296113333
  0
LINE
  8
_0-0_
  6
CONTINUOUS
 62
    7
 10
12650.000173797018
 20
8150.0005184453412
 11
12650.000173797018
 21
8050.0003829425823
  0
LINE
  8
_0-0_
  6
CONTINUOUS
 62
    7
 10
12650.000173797018
 20
8050.0003829425823
 11
12550.000038294258
 21
8050.0003829425823
  0
LINE
  8
_0-0_
  6
CONTINUOUS
 62
    7
 10
12550.000038294258
 20
8050.0003829425823
 11
12550.000038294258
 21
8150.0005184453412
  0
LINE
  8
_0-0_
  6
CONTINUOUS
 62
    7
 10
12550.000038294258
 20
8150.0005184453412
 11
12650.000173797018
 21
8150.0005184453412
  0
LINE
  8
_0-0_
  6
CONTINUOUS
 62
    7
 10
11749.999829148694
 20
8150.0005184453412
 11
11749.999829148694
 21
8050.0003829425823
  0
LINE
  8
_0-0_
  6
CONTINUOUS
 62
    7
 10
11749.999829148694
 20
8050.0003829425823
 11
11649.999693645932
 21
8050.0003829425823
  0
LINE
  8
_0-0_
  6
CONTINUOUS
 62
    7
 10
11649.999693645932
 20
8050.0003829425823
 11
11649.999693645932
 21
8150.0005184453412
  0
LINE
  8
_0-0_
  6
CONTINUOUS
 62
    7
 10
11649.999693645932
 20
8150.0005184453412
 11
11749.999829148694
 21
8150.0005184453412
  0
LINE
  8
_0-0_
  6
CONTINUOUS
 62
    4
 10
12550.000038294258
 20
8050.0003829425823
 11
11749.999829148694
 21
8050.0003829425823
  0
LINE
  8
_0-0_
  6
CONTINUOUS
 62
    4
 10
12550.000038294258
 20
8150.0005184453412
 11
11749.999829148694
 21
8150.0005184453412
  0
LINE
  8
_0-0_
  6
CONTINUOUS
 62
    2
 10
12550.000038294258
 20
8100.0004506939622
 11
11749.999829148694
 21
8100.0004506939622
  0
LINE
  8
_0-0_
  6
CONTINUOUS
 62
    4
 10
11749.999829148694
 20
8050.0003829425823
 11
11749.999829148694
 21
7300.0002415483978
  0
LINE
  8
_0-0_
  6
CONTINUOUS
 62
    7
 10
17050.001761535877
 20
9950.0003328654748
 11
17150.000147285606
 21
9950.0003328654748
  0
LINE
  8
_0-0_
  6
CONTINUOUS
 62
    7
 10
17150.000147285606
 20
9950.0003328654748
 11
17150.000147285606
 21
9850.000197362715
  0
LINE
  8
_0-0_
  6
CONTINUOUS
 62
    7
 10
17150.000147285606
 20
9850.000197362715
 11
17050.001761535877
 21
9850.000197362715
  0
LINE
  8
_0-0_
  6
CONTINUOUS
 62
    7
 10
17050.001761535877
 20
9850.000197362715
 11
17050.001761535877
 21
9950.0003328654748
  0
LINE
  8
_0-0_
  6
CONTINUOUS
 62
    7
 10
17050.001761535877
 20
9049.9999882171487
 11
17150.000147285606
 21
9049.9999882171487
  0
LINE
  8
_0-0_
  6
CONTINUOUS
 62
    7
 10
17150.000147285606
 20
9049.9999882171487
 11
17150.000147285606
 21
8949.9998527143907
  0
LINE
  8
_0-0_
  6
CONTINUOUS
 62
    7
 10
17150.000147285606
 20
8949.9998527143907
 11
17050.001761535877
 21
8949.9998527143907
  0
LINE
  8
_0-0_
  6
CONTINUOUS
 62
    7
 10
17050.001761535877
 20
8949.9998527143907
 11
17050.001761535877
 21
9049.9999882171487
  0
LINE
  8
_0-0_
  6
CONTINUOUS
 62
    4
 10
17150.000147285606
 20
9850.000197362715
 11
17150.000147285606
 21
9049.9999882171487
  0
LINE
  8
_0-0_
  6
CONTINUOUS
 62
    4
 10
17050.001761535877
 20
9850.000197362715
 11
17050.001761535877
 21
9049.9999882171487
  0
LINE
  8
_0-0_
  6
CONTINUOUS
 62
    2
 10
17100.000954410742
 20
9850.000197362715
 11
17100.000954410742
 21
9049.9999882171487
  0
LINE
  8
_0-0_
  6
CONTINUOUS
 62
    4
 10
17150.000147285606
 20
9049.9999882171487
 11
17900.002038432824
 21
9049.9999882171487
  0
LINE
  8
_0-0_
  6
CONTINUOUS
 62
    7
 10
14449.999113340635
 20
9049.9999882171487
 11
14449.999113340635
 21
8949.9998527143907
  0
LINE
  8
_0-0_
  6
CONTINUOUS
 62
    7
 10
14449.999113340635
 20
8949.9998527143907
 11
14350.000727590907
 21
8949.9998527143907
  0
LINE
  8
_0-0_
  6
CONTINUOUS
 62
    7
 10
14350.000727590907
 20
8949.9998527143907
 11
14350.000727590907
 21
9049.9999882171487
  0
LINE
  8
_0-0_
  6
CONTINUOUS
 62
    7
 10
14350.000727590907
 20
9049.9999882171487
 11
14449.999113340635
 21
9049.9999882171487
  0
LINE
  8
_0-0_
  6
CONTINUOUS
 62
    7
 10
13549.999643568828
 20
9049.9999882171487
 11
13549.999643568828
 21
8949.9998527143907
  0
LINE
  8
_0-0_
  6
CONTINUOUS
 62
    7
 10
13549.999643568828
 20
8949.9998527143907
 11
13450.001257819098
 21
8949.9998527143907
  0
LINE
  8
_0-0_
  6
CONTINUOUS
 62
    7
 10
13450.001257819098
 20
8949.9998527143907
 11
13450.001257819098
 21
9049.9999882171487
  0
LINE
  8
_0-0_
  6
CONTINUOUS
 62
    7
 10
13450.001257819098
 20
9049.9999882171487
 11
13549.999643568828
 21
9049.9999882171487
  0
LINE
  8
_0-0_
  6
CONTINUOUS
 62
    7
 10
13749.999914574346
 20
8949.9998527143907
 11
13749.999914574346
 21
9049.9999882171487
  0
LINE
  8
_0-0_
  6
CONTINUOUS
 62
    7
 10
13719.998649096397
 20
8949.9998527143907
 11
13719.998649096397
 21
9049.9999882171487
  0
LINE
  8
_0-0_
  6
CONTINUOUS
 62
    7
 10
13749.999914574346
 20
8949.9998527143907
 11
13719.998649096397
 21
8949.9998527143907
  0
LINE
  8
_0-0_
  6
CONTINUOUS
 62
    7
 10
13719.998649096397
 20
8949.9998527143907
 11
13549.999643568828
 21
8949.9998527143907
  0
LINE
  8
_0-0_
  6
CONTINUOUS
 62
    7
 10
13749.999914574346
 20
9049.9999882171487
 11
13719.998649096397
 21
9049.9999882171487
  0
LINE
  8
_0-0_
  6
CONTINUOUS
 62
    7
 10
13719.998649096397
 20
9049.9999882171487
 11
13549.999643568828
 21
9049.9999882171487
  0
LINE
  8
_0-0_
  6
CONTINUOUS
 62
    7
 10
13719.998649096397
 20
9024.9995169032027
 11
13549.999643568828
 21
9024.9995169032027
  0
LINE
  8
_0-0_
  6
CONTINUOUS
 62
    7
 10
13719.998649096397
 20
8975.0003240283368
 11
13549.999643568828
 21
8975.0003240283368
  0
LINE
  8
_0-0_
  6
CONTINUOUS
 62
    4
 10
14350.000727590907
 20
8949.9998527143907
 11
13749.999914574346
 21
8949.9998527143907
  0
LINE
  8
_0-0_
  6
CONTINUOUS
 62
    4
 10
13749.999914574346
 20
9049.9999882171487
 11
14350.000727590907
 21
9049.9999882171487
  0
LINE
  8
_0-0_
  6
CONTINUOUS
 62
    2
 10
14350.000727590907
 20
8999.9999204657706
 11
13749.999914574346
 21
8999.9999204657706
  0
LINE
  8
_0-0_
  6
CONTINUOUS
 62
    4
 10
14350.000727590907
 20
8999.9999204657706
 11
14350.000727590907
 21
8399.99910744921
  0
LINE
  8
_0-0_
  6
CONTINUOUS
 62
    4
 10
11750.000704025209
 20
9049.9999882171487
 11
12550.000038294258
 21
9049.9999882171487
  0
LINE
  8
_0-0_
  6
CONTINUOUS
 62
    4
 10
12550.000038294258
 20
9850.000197362715
 11
12550.000038294258
 21
9049.9999882171487
  0
LINE
  8
_0-0_
  6
CONTINUOUS
 62
    7
 10
11650.00056852245
 20
10750.000542011039
 11
11650.00056852245
 21
10849.998927760767
  0
LINE
  8
_0-0_
  6
CONTINUOUS
 62
    7
 10
11650.00056852245
 20
10849.998927760767
 11
11750.000704025209
 21
10849.998927760767
  0
LINE
  8
_0-0_
  6
CONTINUOUS
 62
    7
 10
11750.000704025209
 20
10849.998927760767
 11
11750.000704025209
 21
10750.000542011039
  0
LINE
  8
_0-0_
  6
CONTINUOUS
 62
    7
 10
11750.000704025209
 20
10750.000542011039
 11
11650.00056852245
 21
10750.000542011039
  0
LINE
  8
_0-0_
  6
CONTINUOUS
 62
    7
 10
12550.000913170772
 20
10750.000542011039
 11
12550.000913170772
 21
10849.998927760767
  0
LINE
  8
_0-0_
  6
CONTINUOUS
 62
    7
 10
12550.000913170772
 20
10849.998927760767
 11
12650.001048673534
 21
10849.998927760767
  0
LINE
  8
_0-0_
  6
CONTINUOUS
 62
    7
 10
12650.001048673534
 20
10849.998927760767
 11
12650.001048673534
 21
10750.000542011039
  0
LINE
  8
_0-0_
  6
CONTINUOUS
 62
    7
 10
12650.001048673534
 20
10750.000542011039
 11
12550.000913170772
 21
10750.000542011039
  0
LINE
  8
_0-0_
  6
CONTINUOUS
 62
    7
 10
11750.000704025209
 20
10750.000542011039
 11
12550.000913170772
 21
10750.000542011039
  0
LINE
  8
_0-0_
  6
CONTINUOUS
 62
    7
 10
12550.000913170772
 20
10849.998927760767
 11
11750.000704025209
 21
10849.998927760767
  0
LINE
  8
_0-0_
  6
CONTINUOUS
 62
    7
 10
12550.000913170772
 20
10825.000206199851
 11
11750.000704025209
 21
10825.000206199851
  0
LINE
  8
_0-0_
  6
CONTINUOUS
 62
    7
 10
11750.000704025209
 20
10774.999263571957
 11
12550.000913170772
 21
10774.999263571957
  0
ARC
  8
_0-0_
  6
CONTINUOUS
 62
    4
 10
10069.809104300833
 20
6228.9484149240607
 40
30.000001007985883
 50
90
 51
180
  0
ARC
  8
_0-0_
  6
CONTINUOUS
 62
    4
 10
10069.809104300833
 20
5707.2814204978204
 40
30.000001007985883
 50
180
 51
270
  0
ARC
  8
_0-0_
  6
CONTINUOUS
 62
    4
 10
10434.270412489253
 20
5707.2814204978204
 40
30.000001007985883
 50
270
 51
0
  0
ARC
  8
_0-0_
  6
CONTINUOUS
 62
    4
 10
10434.270412489253
 20
6228.9484149240607
 40
30.000001007985883
 50
0
 51
90
  0
CIRCLE
  8
_0-0_
  6
CONTINUOUS
 62
    4
 10
10212.737680678201
 20
4710.4532425928301
 40
99.999998803304422
  0
CIRCLE
  8
_0-0_
  6
CONTINUOUS
 62
    4
 10
10212.737680678201
 20
4985.5669117342086
 40
99.999998803304422
  0
ARC
  8
_0-0_
  6
CONTINUOUS
 62
    4
 10
17229.998855885391
 20
10130.00092672105
 40
30.000001007985883
 50
180
 51
270
  0
ARC
  8
_0-0_
  6
CONTINUOUS
 62
    4
 10
18270.001314965913
 20
10130.00092672105
 40
30.000001007985883
 50
270
 51
0
  0
ARC
  8
_0-0_
  6
CONTINUOUS
 62
    4
 10
18270.001314965913
 20
10669.996584152163
 40
30.000001007985883
 50
0
 51
90
  0
ARC
  8
_0-0_
  6
CONTINUOUS
 62
    4
 10
17229.998855885391
 20
10669.996584152163
 40
30.000001007985883
 50
90
 51
180
  0
LINE
  8
_0-0_
  6
CONTINUOUS
 62
    4
 10
15604.846011165486
 20
10459.999974077731
 11
15604.846011165486
 21
10459.999974077731
  0
LINE
  8
_0-0_
  6
CONTINUOUS
 62
    4
 10
15604.846011165486
 20
10459.999974077731
 11
15607.884460526682
 21
10453.054047054176
  0
LINE
  8
_0-0_
  6
CONTINUOUS
 62
    4
 10
15607.884460526682
 20
10453.054047054176
 11
15616.907486863964
 21
10446.319168508422
  0
LINE
  8
_0-0_
  6
CONTINUOUS
 62
    4
 10
15616.907486863964
 20
10446.319168508422
 11
15631.640930087944
 21
10439.99997431707
  0
LINE
  8
_0-0_
  6
CONTINUOUS
 62
    4
 10
15631.640930087944
 20
10439.99997431707
 11
15651.637121981743
 21
10434.288469997959
  0
LINE
  8
_0-0_
  6
CONTINUOUS
 62
    4
 10
15651.637121981743
 20
10434.288469997959
 11
15676.288488373228
 21
10429.358196719661
  0
LINE
  8
_0-0_
  6
CONTINUOUS
 62
    4
 10
15676.288488373228
 20
10429.358196719661
 11
15704.846009968789
 21
10425.358958340901
  0
LINE
  8
_0-0_
  6
CONTINUOUS
 62
    4
 10
15704.846009968789
 20
10425.358958340901
 11
15736.441980925549
 21
10422.412269696106
  0
LINE
  8
_0-0_
  6
CONTINUOUS
 62
    4
 10
15736.441980925549
 20
10422.412269696106
 11
15770.116373654317
 21
10420.60766442865
  0
LINE
  8
_0-0_
  6
CONTINUOUS
 62
    4
 10
15770.116373654317
 20
10420.60766442865
 11
15804.846008772094
 21
10419.999974556409
  0
LINE
  8
_0-0_
  6
CONTINUOUS
 62
    4
 10
15804.846008772094
 20
10419.999974556409
 11
15839.575643889872
 21
10420.60766442865
  0
LINE
  8
_0-0_
  6
CONTINUOUS
 62
    4
 10
15839.575643889872
 20
10420.60766442865
 11
15873.25003661864
 21
10422.412269696106
  0
LINE
  8
_0-0_
  6
CONTINUOUS
 62
    4
 10
15873.25003661864
 20
10422.412269696106
 11
15904.846007575399
 21
10425.358958340901
  0
LINE
  8
_0-0_
  6
CONTINUOUS
 62
    4
 10
15904.846007575399
 20
10425.358958340901
 11
15933.403529170959
 21
10429.358196719661
  0
LINE
  8
_0-0_
  6
CONTINUOUS
 62
    4
 10
15933.403529170959
 20
10429.358196719661
 11
15958.054895562445
 21
10434.288469997959
  0
LINE
  8
_0-0_
  6
CONTINUOUS
 62
    4
 10
15958.054895562445
 20
10434.288469997959
 11
15978.051087456244
 21
10439.99997431707
  0
LINE
  8
_0-0_
  6
CONTINUOUS
 62
    4
 10
15978.051087456244
 20
10439.99997431707
 11
15992.784530680223
 21
10446.319168508422
  0
LINE
  8
_0-0_
  6
CONTINUOUS
 62
    4
 10
15992.784530680223
 20
10446.319168508422
 11
16001.807557017506
 21
10453.054047054175
  0
LINE
  8
_0-0_
  6
CONTINUOUS
 62
    4
 10
16001.807557017506
 20
10453.054047054175
 11
16004.846006378702
 21
10459.999974077731
  0
LINE
  8
_0-0_
  6
CONTINUOUS
 62
    4
 10
16004.846006378702
 20
10459.999974077731
 11
16004.846006378702
 21
10459.999974077731
  0
LINE
  8
_0-0_
  6
CONTINUOUS
 62
    4
 10
14966.903489950397
 20
9549.9162972760441
 11
14966.903489950397
 21
9549.9162972760441
  0
LINE
  8
_0-0_
  6
CONTINUOUS
 62
    4
 10
14966.903489950397
 20
9549.9162972760441
 11
14939.392185508741
 21
9573.9789347973128
  0
LINE
  8
_0-0_
  6
CONTINUOUS
 62
    4
 10
14939.392185508741
 20
9573.9789347973128
 11
14906.430253706663
 21
9594.274577814529
  0
LINE
  8
_0-0_
  6
CONTINUOUS
 62
    4
 10
14906.430253706663
 20
9594.274577814529
 11
14869.019226162429
 21
9610.1865534847057
  0
LINE
  8
_0-0_
  6
CONTINUOUS
 62
    4
 10
14869.019226162429
 20
9610.1865534847057
 11
14828.295818017074
 21
9621.2313844789514
  0
LINE
  8
_0-0_
  6
CONTINUOUS
 62
    4
 10
14828.295818017074
 20
9621.2313844789514
 11
14785.497389420058
 21
9627.0734791964624
  0
LINE
  8
_0-0_
  6
CONTINUOUS
 62
    4
 10
14785.497389420058
 20
9627.0734791964624
 11
14741.92434896725
 21
9627.5353285454876
  0
LINE
  8
_0-0_
  6
CONTINUOUS
 62
    4
 10
14741.92434896725
 20
9627.5353285454876
 11
14698.900641443788
 21
9622.6028994672652
  0
LINE
  8
_0-0_
  6
CONTINUOUS
 62
    4
 10
14698.900641443788
 20
9622.6028994672652
 11
14657.733520431724
 21
9612.4260613234055
  0
LINE
  8
_0-0_
  6
CONTINUOUS
 62
    4
 10
14657.733520431724
 20
9612.4260613234055
 11
14619.673828071442
 21
9597.3140321911833
  0
LINE
  8
_0-0_
  6
CONTINUOUS
 62
    4
 10
14619.673828071442
 20
9597.3140321911833
 11
14585.877988856177
 21
9577.7259834287233
  0
LINE
  8
_0-0_
  6
CONTINUOUS
 62
    4
 10
14585.877988856177
 20
9577.7259834287233
 11
14557.372872258962
 21
9554.2570879856448
  0
LINE
  8
_0-0_
  6
CONTINUOUS
 62
    4
 10
14557.372872258962
 20
9554.2570879856448
 11
14535.024591823321
 21
9527.620436374149
  0
LINE
  8
_0-0_
  6
CONTINUOUS
 62
    4
 10
14535.024591823321
 20
9527.620436374149
 11
14519.512188741515
 21
9498.6253697746561
  0
LINE
  8
_0-0_
  6
CONTINUOUS
 62
    4
 10
14519.512188741515
 20
9498.6253697746561
 11
14511.306999531529
 21
9468.152888613582
  0
LINE
  8
_0-0_
  6
CONTINUOUS
 62
    4
 10
14511.306999531529
 20
9468.152888613582
 11
14510.658334715483
 21
9437.1288838111832
  0
LINE
  8
_0-0_
  6
CONTINUOUS
 62
    4
 10
14510.658334715483
 20
9437.1288838111832
 11
14517.585903645571
 21
9406.4960040544775
  0
LINE
  8
_0-0_
  6
CONTINUOUS
 62
    4
 10
14517.585903645571
 20
9406.4960040544775
 11
14531.879215645373
 21
9377.185013893888
  0
LINE
  8
_0-0_
  6
CONTINUOUS
 62
    4
 10
14531.879215645373
 20
9377.185013893888
 11
14553.10397566254
 21
9350.086512933367
  0
LINE
  8
_0-0_
  6
CONTINUOUS
 62
    4
 10
14553.10397566254
 20
9350.086512933367
 11
14580.615280104195
 21
9326.0238754120983
  0
LINE
  8
_0-0_
  6
CONTINUOUS
 62
    4
 10
14580.615280104195
 20
9326.0238754120983
 11
14613.577211906273
 21
9305.7282323948821
  0
LINE
  8
_0-0_
  6
CONTINUOUS
 62
    4
 10
14613.577211906273
 20
9305.7282323948821
 11
14650.988239450508
 21
9289.8162567247055
  0
LINE
  8
_0-0_
  6
CONTINUOUS
 62
    4
 10
14650.988239450508
 20
9289.8162567247055
 11
14691.711647595861
 21
9278.7714257304597
  0
LINE
  8
_0-0_
  6
CONTINUOUS
 62
    4
 10
14691.711647595861
 20
9278.7714257304597
 11
14734.510076192879
 21
9272.9293310129488
  0
LINE
  8
_0-0_
  6
CONTINUOUS
 62
    4
 10
14734.510076192879
 20
9272.9293310129488
 11
14778.083116645686
 21
9272.4674816639235
  0
LINE
  8
_0-0_
  6
CONTINUOUS
 62
    4
 10
14778.083116645686
 20
9272.4674816639235
 11
14821.106824169148
 21
9277.3999107421459
  0
LINE
  8
_0-0_
  6
CONTINUOUS
 62
    4
 10
14821.106824169148
 20
9277.3999107421459
 11
14862.273945181212
 21
9287.5767488860056
  0
LINE
  8
_0-0_
  6
CONTINUOUS
 62
    4
 10
14862.273945181212
 20
9287.5767488860056
 11
14900.333637541493
 21
9302.6887780182278
  0
LINE
  8
_0-0_
  6
CONTINUOUS
 62
    4
 10
14900.333637541493
 20
9302.6887780182278
 11
14934.12947675676
 21
9322.2768267806878
  0
LINE
  8
_0-0_
  6
CONTINUOUS
 62
    4
 10
14934.12947675676
 20
9322.2768267806878
 11
14962.634593353974
 21
9345.7457222237663
  0
LINE
  8
_0-0_
  6
CONTINUOUS
 62
    4
 10
14962.634593353974
 20
9345.7457222237663
 11
14966.903489950397
 21
9350.086512933367
  0
LINE
  8
_0-0_
  6
CONTINUOUS
 62
    3
 10
13550.002466421271
 20
9197.5726500789988
 11
13550.002466421271
 21
9197.5726500789988
  0
LINE
  8
_0-0_
  6
CONTINUOUS
 62
    3
 10
13550.002466421271
 20
9197.5726500789988
 11
13589.109239446654
 21
9187.4025520276991
  0
LINE
  8
_0-0_
  6
CONTINUOUS
 62
    3
 10
13589.109239446654
 20
9187.4025520276991
 11
13629.154620601626
 21
9185.2113872457157
  0
LINE
  8
_0-0_
  6
CONTINUOUS
 62
    3
 10
13629.154620601626
 20
9185.2113872457157
 11
13668.921851243735
 21
9191.0657331661623
  0
LINE
  8
_0-0_
  6
CONTINUOUS
 62
    3
 10
13668.921851243735
 20
9191.0657331661623
 11
13707.202624193111
 21
9204.787708450689
  0
LINE
  8
_0-0_
  6
CONTINUOUS
 62
    3
 10
13707.202624193111
 20
9204.787708450689
 11
13742.833797534689
 21
9225.9603778239307
  0
LINE
  8
_0-0_
  6
CONTINUOUS
 62
    3
 10
13742.833797534689
 20
9225.9603778239307
 11
13774.732736096734
 21
9253.9404204408675
  0
LINE
  8
_0-0_
  6
CONTINUOUS
 62
    3
 10
13774.732736096734
 20
9253.9404204408675
 11
13801.930206772675
 21
9287.8776768651715
  0
LINE
  8
_0-0_
  6
CONTINUOUS
 62
    3
 10
13801.930206772675
 20
9287.8776768651715
 11
13823.599828178611
 21
9326.7409807334679
  0
LINE
  8
_0-0_
  6
CONTINUOUS
 62
    3
 10
13823.599828178611
 20
9326.7409807334679
 11
13839.08317983348
 21
9369.3494902235016
  0
LINE
  8
_0-0_
  6
CONTINUOUS
 62
    3
 10
13839.08317983348
 20
9369.3494902235016
 11
13847.909807932201
 21
9414.4085673353602
  0
LINE
  8
_0-0_
  6
CONTINUOUS
 62
    3
 10
13847.909807932201
 20
9414.4085673353602
 11
13849.811519846486
 21
9460.5491148119963
  0
LINE
  8
_0-0_
  6
CONTINUOUS
 62
    3
 10
13849.811519846486
 20
9460.5491148119963
 11
13844.73053302213
 21
9506.3691754665761
  0
LINE
  8
_0-0_
  6
CONTINUOUS
 62
    3
 10
13844.73053302213
 20
9506.3691754665761
 11
13832.821230672689
 21
9550.4765299421779
  0
LINE
  8
_0-0_
  6
CONTINUOUS
 62
    3
 10
13832.821230672689
 20
9550.4765299421779
 11
13814.445470923652
 21
9591.5309985924578
  0
LINE
  8
_0-0_
  6
CONTINUOUS
 62
    3
 10
13814.445470923652
 20
9591.5309985924578
 11
13790.161591936412
 21
9628.2851621620448
  0
LINE
  8
_0-0_
  6
CONTINUOUS
 62
    3
 10
13790.161591936412
 20
9628.2851621620448
 11
13760.707447085761
 21
9659.6222639893767
  0
LINE
  8
_0-0_
  6
CONTINUOUS
 62
    3
 10
13760.707447085761
 20
9659.6222639893767
 11
13726.977985658465
 21
9684.5901420927712
  0
LINE
  8
_0-0_
  6
CONTINUOUS
 62
    3
 10
13726.977985658465
 20
9684.5901420927712
 11
13689.998060272066
 21
9702.4301601304123
  0
LINE
  8
_0-0_
  6
CONTINUOUS
 62
    3
 10
13689.998060272066
 20
9702.4301601304123
 11
13650.891287246683
 21
9712.600258181712
  0
LINE
  8
_0-0_
  6
CONTINUOUS
 62
    3
 10
13650.891287246683
 20
9712.600258181712
 11
13610.84590609171
 21
9714.7914229636954
  0
LINE
  8
_0-0_
  6
CONTINUOUS
 62
    3
 10
13610.84590609171
 20
9714.7914229636954
 11
13571.078675449602
 21
9708.9370770432488
  0
LINE
  8
_0-0_
  6
CONTINUOUS
 62
    3
 10
13571.078675449602
 20
9708.9370770432488
 11
13550.002174694784
 21
9702.4300527356681
  0
CIRCLE
  8
_0-0_
  6
CONTINUOUS
 62
    3
 10
13690.000008247995
 20
9450.0014051047056
 40
30.000001007985883
  0
ARC
  8
_0-0_
  6
CONTINUOUS
 62
    4
 10
11700.00063627383
 20
10299.999057372102
 40
800.00037318491104
 50
180
 51
270
  0
ARC
  8
_0-0_
  6
CONTINUOUS
 62
    4
 10
17050.000011782849
 20
8100.0004506939622
 40
800.00037318491104
 50
90
 51
180
  0
ARC
  8
_0-0_
  6
CONTINUOUS
 62
    4
 10
16150.000542011039
 20
8999.9999204657706
 40
800.00037318491104
 50
90
 51
180
  0
ARC
  8
_0-0_
  6
CONTINUOUS
 62
    4
 10
11749.999829148694
 20
8100.0004506939622
 40
800.00037318491104
 50
270
 51
0
  0
ARC
  8
_0-0_
  6
CONTINUOUS
 62
    4
 10
17100.000954410742
 20
9049.9999882171487
 40
800.00037318491104
 50
0
 51
90
  0
ARC
  8
_0-0_
  6
CONTINUOUS
 62
    4
 10
14350.000727590907
 20
8999.9999204657706
 40
600.00075833677784
 50
180
 51
270
  0
TEXT
  8
_0-0_
 62
    7
 10
11007.220916038548
 20
6117.9535729779582
 40
400
 41
1
 50
0
  1
ＤＫ
  0
TEXT
  8
_0-0_
 62
    7
 10
12884.049853634851
 20
6117.9535729779582
 40
400
 41
1
 50
0
  1
リビングルーム
  0
TEXT
  8
_0-0_
 62
    7
 10
17135.641936761171
 20
6098.8022572882001
 40
400
 41
1
 50
0
  1
和室
  0
TEXT
  8
_0-0_
 62
    7
 10
17633.576144694885
 20
8377.8088243694274
 40
300
 41
1
 50
0
  1
押入
  0
TEXT
  8
_0-0_
 62
    7
 10
15737.595891408824
 20
9622.6443442037089
 40
300
 41
1
 50
0
  1
洗面所
  0
TEXT
  8
_0-0_
 62
    7
 10
17633.576144694885
 20
9316.2232931675771
 40
300
 41
1
 50
0
  1
浴室
  0
TEXT
  8
_0-0_
 62
    4
 10
13822.464322433003
 20
9297.071977477819
 40
250
 41
1
 50
0
  1
トイレ
  0
TEXT
  8
_0-0_
 62
    4
 10
12252.056435872832
 20
9641.795659893467
 40
250
 41
1
 50
90
  1
玄関
  0
TEXT
  8
_0-0_
 62
    4
 10
14511.911687264299
 20
8396.9601400591837
 40
250
 41
1
 50
0
  1
廊下
  0
ENDSEC
  0
EOF
